<?xml version="1.0" encoding="UTF-8"?>
<!DOCTYPE svg PUBLIC "-//W3C//DTD SVG 1.1//EN" "http://www.w3.org/Graphics/SVG/1.1/DTD/svg11.dtd">
<svg xmlns="http://www.w3.org/2000/svg" version="1.1" width="200px" height="200px" style="fill-rule: evenodd; shape-rendering: geometricPrecision; text-rendering: geometricPrecision; image-rendering: optimizeQuality; clip-rule: evenodd" xmlns:xlink="http://www.w3.org/1999/xlink">
<g><path style="opacity: 1" fill="#d45031" d="M 91.5 10.5 C 92 10.6 92.4 10.9 92.5 11.5 C 91.4 12.6 90.7 14 90.5 15.5 C 89.1 16.8 88.4 18.4 88.5 20.5 C 91.6 30.5 97.9 33.2 107.5 28.5 C 109.6 26.9 111.3 24.9 112.5 22.5 C 112.5 24.3 112 26 111 27.5 C 108.4 29.7 105.9 31.7 103.5 33.5 C 102.6 32.5 101.4 31.9 100 31.5 C 98.4 31.9 97.3 32.5 96.5 33.5 C 94.5 31.7 92.3 30.1 90 28.5 C 85.3 22 85.8 16 91.5 10.5 Z"/></g>
<g><path style="opacity: 1" fill="#cf957b" d="M 90.5 15.5 C 90.3 19 91 22.4 92.5 25.5 C 90.9 24 89.6 22.3 88.5 20.5 C 88.4 18.4 89.1 16.8 90.5 15.5 Z"/></g>
<g><path style="opacity: 1" fill="#e9c2a3" d="M 103.5 11.5 C 103.8 12.3 104.5 12.7 105.5 12.5 C 108.7 18.2 107.6 22.8 102 26.5 C 96.4 26.9 93.3 24.4 92.5 19 C 93.1 11.8 96.8 9.3 103.5 11.5 Z"/></g>
<g><path style="opacity: 1" fill="#e9a074" d="M 101.5 15.5 C 102.5 15.4 103.3 15.7 104 16.5 C 104.3 18.1 104.8 19.6 105.5 21 C 104 22 102.7 23.1 101.5 24.5 C 100.5 23.2 99.5 23.2 98.5 24.5 C 94.2 20.1 94.7 16.4 100 13.5 C 101 13.8 101.5 14.5 101.5 15.5 Z"/></g>
<g><path style="opacity: 1" fill="#f8f1e7" d="M 101.5 15.5 C 103.5 19.3 102.5 21.1 98.5 21 C 96.7 17.5 97.7 15.7 101.5 15.5 Z"/></g>
<g><path style="opacity: 1" fill="#d38a6b" d="M 92.5 25.5 C 94.8 26.9 97.3 27.9 100 28.5 C 101.8 28.1 103.7 27.7 105.5 27.5 C 102.9 29.4 99.9 29.9 96.5 29 C 94.7 28.3 93.3 27.2 92.5 25.5 Z"/></g>
<g><path style="opacity: 1" fill="#de9f7f" d="M 111.5 13.5 C 113.5 16.4 113.8 19.4 112.5 22.5 C 111.3 24.9 109.6 26.9 107.5 28.5 C 107.2 27.7 106.5 27.3 105.5 27.5 C 109.9 23.7 111.2 19 109.5 13.5 C 110 12.5 110.6 12.5 111.5 13.5 Z"/></g>
<g><path style="opacity: 1" fill="#d06142" d="M 105.5 37.5 C 110.5 38.8 115.2 41 119.5 44 C 133.3 57 136 71.8 127.5 88.5 C 126.4 87.6 125.1 87.2 123.5 87.5 C 124.9 86.8 126.4 86.1 128 85.5 C 134.5 66.1 129 51.2 111.5 41 C 106.6 39.7 101.6 39.2 96.5 39.5 C 99.5 38.8 102.5 38.2 105.5 37.5 Z"/></g>
<g><path style="opacity: 1" fill="#ce5f3f" d="M 89.5 34.5 C 89.5 35.2 89.8 35.5 90.5 35.5 C 71.7 42.4 62.9 56.1 64 76.5 C 63.8 74.9 63.3 73.6 62.5 72.5 C 63 53.7 72 41 89.5 34.5 Z"/></g>
<g><path style="opacity: 1" fill="#da906b" d="M 92.5 44.5 C 94 44.2 95.3 44.6 96.5 45.5 C 97.6 46.6 97.6 47.6 96.5 48.5 C 95.7 47.6 95.2 46.6 95 45.5 C 94.8 46.6 94.3 47.6 93.5 48.5 C 89.3 51.1 85 53.4 80.5 55.5 C 80.2 55.2 79.8 54.8 79.5 54.5 C 82.7 49.6 87.1 46.2 92.5 44.5 Z"/></g>
<g><path style="opacity: 1" fill="#db9978" d="M 99.5 44.5 C 107.3 44.9 113.7 47.6 118.5 52.5 C 116.8 56.2 114.4 56.5 111.5 53.5 C 111.8 52.8 112.2 52.2 112.5 51.5 C 109.6 50.7 107.5 49 106 46.5 C 104.6 47.8 103.6 47.5 103 45.5 C 101.2 49.4 100 49 99.5 44.5 Z"/></g>
<g><path style="opacity: 1" fill="#dd3312" d="M 105.5 37.5 C 102.5 38.2 99.5 38.8 96.5 39.5 C 87 41 80 46 75.5 54.5 C 72 60.6 70.1 67.2 70 74.5 C 69.6 75.1 69.1 75.4 68.5 75.5 C 67.2 73.8 66.5 71.6 66.5 69 C 69.5 46.2 82.5 35.7 105.5 37.5 Z"/></g>
<g><path style="opacity: 1" fill="#e8ac86" d="M 113.5 70.5 C 111 72.5 110 75.2 110.5 78.5 C 107.1 78.6 105.1 77 104.5 73.5 C 105.5 73.6 106.3 73.3 107 72.5 C 110.4 65.1 108.3 60.5 100.5 58.5 C 100.5 59.5 100.5 60.5 100.5 61.5 C 99.5 61.5 98.5 61.5 97.5 61.5 C 97.5 60.5 97.5 59.5 97.5 58.5 C 90.5 59.5 87.7 63.5 89 70.5 C 89.7 72.8 91.2 74.1 93.5 74.5 C 91.9 76.5 91.2 78.8 91.5 81.5 C 91.2 81.5 90.8 81.5 90.5 81.5 C 90.5 81.2 90.5 80.8 90.5 80.5 C 89.9 77.7 88.3 76 85.5 75.5 C 85.3 71.8 84.9 68.2 84.5 64.5 C 86.6 60.9 88.8 57.2 91 53.5 C 91.7 54.2 92.3 54.8 93 55.5 C 96.4 54.4 99.9 54.2 103.5 55 C 109.6 58.8 112.9 64 113.5 70.5 Z"/></g>
<g><path style="opacity: 1" fill="#ddac8a" d="M 126.5 69.5 C 124.9 67.6 122.9 66.3 120.5 65.5 C 120.6 64.9 120.9 64.4 121.5 64 C 126.3 63.3 128 65.2 126.5 69.5 Z"/></g>
<g><path style="opacity: 1" fill="#e06a3a" d="M 120.5 65.5 C 122.9 66.3 124.9 67.6 126.5 69.5 C 126.8 72.5 125.5 73.8 122.5 73.5 C 122.5 75.5 122.5 77.5 122.5 79.5 C 120.1 77.9 118.8 78.5 118.5 81.5 C 117.6 80.8 117.3 79.8 117.5 78.5 C 116.4 78.4 115.4 78.5 114.5 79 C 109.8 84.4 105.1 89.7 100.5 95 C 101.5 95.7 101.6 96.6 101 97.5 C 99.9 96.7 98.7 96 97.5 95.5 C 99.5 93 101.6 90.7 104 88.5 C 104.7 87.2 104.5 86 103.5 85 C 104.8 84.5 106.1 84.3 107.5 84.5 C 110.2 82.8 112.2 80.4 113.5 77.5 C 113.8 76.5 114.5 75.8 115.5 75.5 C 118.7 74.1 119.1 72.5 116.5 70.5 C 117.5 70.5 118.5 70.5 119.5 70.5 C 119.2 68.6 119.5 66.9 120.5 65.5 Z"/></g>
<g><path style="opacity: 1" fill="#e06b41" d="M 97.5 61.5 C 98.5 61.5 99.5 61.5 100.5 61.5 C 103.8 64.4 105.1 68 104.5 72.5 C 103.8 73.2 103.2 73.8 102.5 74.5 C 101.5 72.8 101.5 71.1 102.5 69.5 C 100.6 68.5 98.6 68.2 96.5 68.5 C 96.5 70.5 96.5 72.5 96.5 74.5 C 95.7 73 95.2 71.4 95 69.5 C 94.7 70.4 94.2 71.1 93.5 71.5 C 93.3 70.1 93.5 68.8 94 67.5 C 95.1 65.4 96.2 63.4 97.5 61.5 Z"/></g>
<g><path style="opacity: 1" fill="#efc9ad" d="M 102.5 74.5 C 100 82.4 98 82.4 96.5 74.5 C 96.5 72.5 96.5 70.5 96.5 68.5 C 98.6 68.2 100.6 68.5 102.5 69.5 C 101.5 71.1 101.5 72.8 102.5 74.5 Z"/></g>
<g><path style="opacity: 1" fill="#f3cbad" d="M 115.5 75.5 C 114.5 75.8 113.8 76.5 113.5 77.5 C 112.1 75.3 112.8 73.6 115.5 72.5 C 116.1 73.2 116.1 74.2 115.5 75.5 Z"/></g>
<g><path style="opacity: 1" fill="#e8bc9f" d="M 122.5 79.5 C 122 82.4 122 85.1 122.5 87.5 C 120.5 88.9 119.5 90.9 119.5 93.5 C 118.2 91.8 118.2 89.9 119.5 88 C 118.8 87.3 118.2 87.3 117.5 88 C 116.4 90 115 91.8 113.5 93.5 C 114.8 94.2 116.2 94.8 117.5 95.5 C 116.1 96.2 114.7 96.8 113.5 97.5 C 112.4 95.4 112.2 93 113 90.5 C 113.8 89.9 114.6 89.4 115.5 89 C 114.1 87.4 113.5 85.6 113.5 83.5 C 115.1 83.3 116.6 83.6 118 84.5 C 118.5 83.6 118.6 82.6 118.5 81.5 C 118.8 78.5 120.1 77.9 122.5 79.5 Z"/></g>
<g><path style="opacity: 1" fill="#e05324" d="M 96.5 74.5 C 98 82.4 100 82.4 102.5 74.5 C 103.2 73.8 103.8 73.2 104.5 72.5 C 104.5 72.8 104.5 73.2 104.5 73.5 C 105.1 77 107.1 78.6 110.5 78.5 C 110 75.2 111 72.5 113.5 70.5 C 114.5 70.5 115.5 70.5 116.5 70.5 C 119.1 72.5 118.7 74.1 115.5 75.5 C 116.1 74.2 116.1 73.2 115.5 72.5 C 112.8 73.6 112.1 75.3 113.5 77.5 C 112.2 80.4 110.2 82.8 107.5 84.5 C 107.2 82.3 106.3 80.3 105 78.5 C 104.7 79.8 104.3 81.2 104 82.5 C 103.8 81.4 103.3 80.4 102.5 79.5 C 99.4 83.8 96.8 88.3 94.5 93 C 95.1 94.3 96.1 95.1 97.5 95.5 C 98.7 96 99.9 96.7 101 97.5 C 101.6 96.6 101.5 95.7 100.5 95 C 105.1 89.7 109.8 84.4 114.5 79 C 115.4 78.5 116.4 78.4 117.5 78.5 C 117.3 79.8 117.6 80.8 118.5 81.5 C 118.6 82.6 118.5 83.6 118 84.5 C 116.6 83.6 115.1 83.3 113.5 83.5 C 113.5 85.6 114.1 87.4 115.5 89 C 114.6 89.4 113.8 89.9 113 90.5 C 112.2 93 112.4 95.4 113.5 97.5 C 113.7 98.7 113.4 99.7 112.5 100.5 C 108.3 97.9 104.3 98.2 100.5 101.5 C 99.7 102.3 99.2 103.3 99 104.5 C 98.6 102.6 98.1 100.8 97.5 99 C 97.2 98 96.5 97.5 95.5 97.5 C 94.3 96.8 93 96.4 91.5 96.5 C 91.5 97.5 91.5 98.5 91.5 99.5 C 90 98.9 89 97.7 88.5 96 C 91.1 94.5 90.7 93.7 87.5 93.5 C 87.1 92.8 86.4 92.3 85.5 92 C 87.4 91.8 89 91.3 90.5 90.5 C 92.3 88.5 94 86.3 95.5 84 C 95 82 93.6 81.1 91.5 81.5 C 91.2 78.8 91.9 76.5 93.5 74.5 C 93.5 73.5 93.5 72.5 93.5 71.5 C 94.2 71.1 94.7 70.4 95 69.5 C 95.2 71.4 95.7 73 96.5 74.5 Z"/></g>
<g><path style="opacity: 1" fill="#f3decd" d="M 107.5 84.5 C 106.1 84.3 104.8 84.5 103.5 85 C 104.5 86 104.7 87.2 104 88.5 C 101.6 90.7 99.5 93 97.5 95.5 C 96.1 95.1 95.1 94.3 94.5 93 C 96.8 88.3 99.4 83.8 102.5 79.5 C 103.3 80.4 103.8 81.4 104 82.5 C 104.3 81.2 104.7 79.8 105 78.5 C 106.3 80.3 107.2 82.3 107.5 84.5 Z"/></g>
<g><path style="opacity: 1" fill="#e8bda0" d="M 107.5 91.5 C 108.7 92 109.4 93 109.5 94.5 C 109.3 95.5 109.2 96.5 109 97.5 C 107.7 97 106.2 97 104.5 97.5 C 104.6 95.1 105.6 93.1 107.5 91.5 Z"/></g>
<g><path style="opacity: 1" fill="#e39569" d="M 77.5 96.5 C 77.5 98 78.2 99.2 79.5 100 C 78.9 101 78.3 101.8 77.5 102.5 C 77.6 101.8 77.5 101.1 77 100.5 C 75.2 101.7 73.3 102.5 71.5 103 C 72.6 102 72.3 101.3 70.5 101 C 71.5 100.7 72.5 100.3 73.5 100 C 72.2 97.9 70.3 96.4 68 95.5 C 65.9 96.7 66.1 97.5 68.5 98 C 67.8 99 66.8 99.5 65.5 99.5 C 64.8 99.5 64.2 99.5 63.5 99.5 C 66.1 98 65.8 97 62.5 96.5 C 62.9 95.8 63.6 95.3 64.5 95 C 62.2 94.2 61.9 92.9 63.5 91 C 65.6 87.6 67.2 87.8 68.5 91.5 C 69 90.4 69.3 89.4 69.5 88.5 C 70.5 91.3 72.5 92.7 75.5 92.5 C 75.2 94.5 75.8 95.8 77.5 96.5 Z"/></g>
<g><path style="opacity: 1" fill="#d23f18" d="M 62.5 96.5 C 65.8 97 66.1 98 63.5 99.5 C 61.2 99.2 60.9 98.2 62.5 96.5 Z"/></g>
<g><path style="opacity: 1" fill="#f0d8c5" d="M 90.5 80.5 C 90.5 80.8 90.5 81.2 90.5 81.5 C 88.6 84.2 87.6 87.2 87.5 90.5 C 88.5 90.5 89.5 90.5 90.5 90.5 C 89 91.3 87.4 91.8 85.5 92 C 86.4 92.3 87.1 92.8 87.5 93.5 C 87.5 95.5 87.5 97.5 87.5 99.5 C 85.6 99.2 83.9 99.5 82.5 100.5 C 81.9 100.6 81.4 100.9 81 101.5 C 80.5 103.5 80.3 105.5 80.5 107.5 C 78.9 108.6 77.3 109.1 75.5 109 C 77.7 107.1 77.4 105.2 74.5 103.5 C 75.3 102.6 76.3 102.3 77.5 102.5 C 78.3 101.8 78.9 101 79.5 100 C 78.2 99.2 77.5 98 77.5 96.5 C 79.3 97.1 81 97.1 82.5 96.5 C 84.4 91.9 86.3 87.2 88 82.5 C 88.7 81.6 89.5 81 90.5 80.5 Z"/></g>
<g><path style="opacity: 1" fill="#c8613d" d="M 128.5 95.5 C 128.8 94.7 129.5 94.3 130.5 94.5 C 133.6 96.6 135.9 99.2 137.5 102.5 C 135.8 101.2 134.2 99.8 132.5 98.5 C 131.7 96.7 130.4 95.7 128.5 95.5 Z"/></g>
<g><path style="opacity: 1" fill="#e37b4c" d="M 77.5 102.5 C 76.3 102.3 75.3 102.6 74.5 103.5 C 77.4 105.2 77.7 107.1 75.5 109 C 77.3 109.1 78.9 108.6 80.5 107.5 C 80.5 108.2 80.5 108.8 80.5 109.5 C 78.2 110.3 75.9 111 73.5 111.5 C 73.4 110.4 73.1 109.4 72.5 108.5 C 69.2 108 67 109.3 66 112.5 C 65.4 111.4 64.5 110.4 63.5 109.5 C 65.6 107.4 65.6 105.7 63.5 104.5 C 65.3 103.4 65.9 101.8 65.5 99.5 C 66.8 99.5 67.8 99 68.5 98 C 66.1 97.5 65.9 96.7 68 95.5 C 70.3 96.4 72.2 97.9 73.5 100 C 72.5 100.3 71.5 100.7 70.5 101 C 72.3 101.3 72.6 102 71.5 103 C 73.3 102.5 75.2 101.7 77 100.5 C 77.5 101.1 77.6 101.8 77.5 102.5 Z"/></g>
<g><path style="opacity: 1" fill="#f0d7c6" d="M 92.5 104.5 C 91.5 105.8 90.2 106.5 88.5 106.5 C 88.4 110.6 87.1 111.2 84.5 108.5 C 84.2 102.7 86.8 100.2 92.5 101 C 93.7 102.1 93.7 103.3 92.5 104.5 Z"/></g>
<g><path style="opacity: 1" fill="#e39167" d="M 87.5 93.5 C 90.7 93.7 91.1 94.5 88.5 96 C 89 97.7 90 98.9 91.5 99.5 C 93 99.7 94.4 100.4 95.5 101.5 C 96.6 100.2 96.6 98.9 95.5 97.5 C 96.5 97.5 97.2 98 97.5 99 C 98.1 100.8 98.6 102.6 99 104.5 C 99.2 103.3 99.7 102.3 100.5 101.5 C 100.5 103.8 100.5 106.2 100.5 108.5 C 99.8 108.5 99.2 108.5 98.5 108.5 C 98.5 107.5 98.5 106.5 98.5 105.5 C 96.7 105.4 95 105.7 93.5 106.5 C 93.7 105.5 93.3 104.8 92.5 104.5 C 93.7 103.3 93.7 102.1 92.5 101 C 86.8 100.2 84.2 102.7 84.5 108.5 C 84.2 108.5 83.8 108.5 83.5 108.5 C 83.1 105.6 83.7 103.1 85.5 101 C 84.6 100.5 83.6 100.4 82.5 100.5 C 83.9 99.5 85.6 99.2 87.5 99.5 C 87.5 97.5 87.5 95.5 87.5 93.5 Z"/></g>
<g><path style="opacity: 1" fill="#e3956b" d="M 132.5 98.5 C 133.9 101.3 133.6 104 131.5 106.5 C 131.8 106.8 132.2 107.2 132.5 107.5 C 133.2 106.4 133.8 105.4 134.5 104.5 C 134.5 105.8 134.5 107.2 134.5 108.5 C 132.9 108.5 131.5 109.1 130.5 110.5 C 129 110 127.6 109.3 126.5 108.5 C 127.4 108.6 128 108.3 128.5 107.5 C 127.7 106.8 127 106 126.5 105 C 126.6 101 128.6 98.9 132.5 98.5 Z"/></g>
<g><path style="opacity: 1" fill="#c45d40" d="M 137.5 102.5 C 139.8 103.8 141.2 105.8 141.5 108.5 C 139.7 106.9 138.3 104.9 137.5 102.5 Z"/></g>
<g><path style="opacity: 1" fill="#f5e8ca" d="M 72.5 108.5 C 73 106.9 74 106.4 75.5 107 C 74.8 108 73.8 108.5 72.5 108.5 Z"/></g>
<g><path style="opacity: 1" fill="#e9cab2" d="M 98.5 108.5 C 96.3 107.4 96 108.1 97.5 110.5 C 97 111.5 96.4 112.3 95.5 113 C 93.2 113.5 90.9 113.7 88.5 113.5 C 88.2 113.5 87.8 113.5 87.5 113.5 C 87.7 111.1 89 110.1 91.5 110.5 C 91.5 108.8 92.2 107.5 93.5 106.5 C 95 105.7 96.7 105.4 98.5 105.5 C 98.5 106.5 98.5 107.5 98.5 108.5 Z"/></g>
<g><path style="opacity: 1" fill="#df6936" d="M 92.5 104.5 C 93.3 104.8 93.7 105.5 93.5 106.5 C 92.2 107.5 91.5 108.8 91.5 110.5 C 89 110.1 87.7 111.1 87.5 113.5 C 84.7 113 83.3 111.3 83.5 108.5 C 83.8 108.5 84.2 108.5 84.5 108.5 C 87.1 111.2 88.4 110.6 88.5 106.5 C 90.2 106.5 91.5 105.8 92.5 104.5 Z"/></g>
<g><path style="opacity: 1" fill="#dc653b" d="M 134.5 104.5 C 136.4 106.5 138 108.9 139.5 111.5 C 137.9 111.5 136.5 110.9 135.5 109.5 C 134.1 111 132.5 112 130.5 112.5 C 127.8 110.1 124.8 109.5 121.5 110.5 C 120.6 109.8 120.3 108.8 120.5 107.5 C 122.6 107.5 124.6 107.8 126.5 108.5 C 127.6 109.3 129 110 130.5 110.5 C 131.5 109.1 132.9 108.5 134.5 108.5 C 134.5 107.2 134.5 105.8 134.5 104.5 Z"/></g>
<g><path style="opacity: 1" fill="#f1d5be" d="M 132.5 98.5 C 134.2 99.8 135.8 101.2 137.5 102.5 C 138.3 104.9 139.7 106.9 141.5 108.5 C 141.9 110.7 141.2 112.4 139.5 113.5 C 139.5 112.8 139.5 112.2 139.5 111.5 C 138 108.9 136.4 106.5 134.5 104.5 C 133.8 105.4 133.2 106.4 132.5 107.5 C 132.2 107.2 131.8 106.8 131.5 106.5 C 133.6 104 133.9 101.3 132.5 98.5 Z"/></g>
<g><path style="opacity: 1" fill="#db9c7b" d="M 107.5 102.5 C 108.1 103.1 108.5 103.9 108.5 105 C 107.9 107.8 107.4 110.7 107 113.5 C 106.3 114.2 105.7 114.8 105 115.5 C 105.2 111.1 106 106.8 107.5 102.5 Z"/></g>
<g><path style="opacity: 1" fill="#e89465" d="M 139.5 111.5 C 139.5 112.2 139.5 112.8 139.5 113.5 C 137.8 113.9 136.8 114.9 136.5 116.5 C 135.3 115.8 134.3 114.8 133.5 113.5 C 132.6 114.8 132.8 116.1 134 117.5 C 135.6 118.1 137.1 118.8 138.5 119.5 C 138.7 120.5 138.3 121.2 137.5 121.5 C 137.6 120.6 137.3 120 136.5 119.5 C 135.3 121.3 133.6 122.3 131.5 122.5 C 131.4 121.5 131.7 120.7 132.5 120 C 130.8 119 129.2 118 127.5 117 C 127.8 116.7 128.2 116.3 128.5 116 C 127.2 115.3 126.2 114.3 125.5 113 C 124.2 112.5 123.5 113 123.5 114.5 C 122.7 113.3 122 112 121.5 110.5 C 124.8 109.5 127.8 110.1 130.5 112.5 C 132.5 112 134.1 111 135.5 109.5 C 136.5 110.9 137.9 111.5 139.5 111.5 Z"/></g>
<g><path style="opacity: 1" fill="#e59c6d" d="M 80.5 109.5 C 81.4 110.3 82.1 111.3 82.5 112.5 C 82.5 113.2 82.5 113.8 82.5 114.5 C 77.9 120 74.9 119 73.5 111.5 C 75.9 111 78.2 110.3 80.5 109.5 Z"/></g>
<g><path style="opacity: 1" fill="#ee9060" d="M 141.5 108.5 C 142.3 108.8 142.7 109.5 142.5 110.5 C 144.1 115.4 145 120.4 145 125.5 C 144.4 121.8 142.6 119.1 139.5 117.5 C 139.5 116.2 139.5 114.8 139.5 113.5 C 141.2 112.4 141.9 110.7 141.5 108.5 Z"/></g>
<g><path style="opacity: 1" fill="#e67a47" d="M 82.5 112.5 C 85.4 115.2 88.7 117.4 92.5 119 C 93.3 119.7 93.6 120.5 93.5 121.5 C 90.8 121.5 88.2 121.5 85.5 121.5 C 84.4 119.7 82.8 118.5 80.5 118 C 82.9 117.5 83.6 116.3 82.5 114.5 C 82.5 113.8 82.5 113.2 82.5 112.5 Z"/></g>
<g><path style="opacity: 1" fill="#efc1a4" d="M 123.5 116.5 C 125.5 116.7 125.9 117.5 124.5 119 C 120.8 119.5 117.2 119.7 113.5 119.5 C 112.5 118.8 111.5 118.2 110.5 117.5 C 112.4 117 114.2 116.4 116 115.5 C 118.5 116.2 121 116.5 123.5 116.5 Z"/></g>
<g><path style="opacity: 1" fill="#db5c31" d="M 142.5 110.5 C 146.7 116.6 148.4 123.4 147.5 131 C 148 139 146.3 146.5 142.5 153.5 C 142.2 153.5 141.8 153.5 141.5 153.5 C 141.4 152 141.8 150.7 142.5 149.5 C 143.4 148.8 143.7 147.8 143.5 146.5 C 143.5 145.8 143.5 145.2 143.5 144.5 C 144.8 143.5 144.8 142.5 143.5 141.5 C 142.9 139.9 142.4 138.2 142 136.5 C 140.5 136.1 139.4 136.1 138.5 136.5 C 138.7 135.2 138.4 134.2 137.5 133.5 C 137.1 132.8 136.4 132.3 135.5 132 C 136 131.8 136.5 131.7 137 131.5 C 139.9 132.7 142.7 134 145.5 135.5 C 146.7 132.6 146.8 129.6 146 126.5 C 142.8 128.8 139.3 129.2 135.5 127.5 C 134.3 127.3 133.6 126.6 133.5 125.5 C 133.4 125 133.1 124.6 132.5 124.5 C 131.1 125.7 129.6 126.7 128 127.5 C 126.7 127.4 125.9 126.7 125.5 125.5 C 126.9 125.7 128.2 125.5 129.5 125 C 130.6 124.2 130.6 123.4 129.5 122.5 C 130.2 122.5 130.8 122.5 131.5 122.5 C 133.6 122.3 135.3 121.3 136.5 119.5 C 137.3 120 137.6 120.6 137.5 121.5 C 137.5 122.2 137.5 122.8 137.5 123.5 C 136.6 124.2 136.3 125.2 136.5 126.5 C 139.2 126.8 141.5 126.2 143.5 124.5 C 142.7 123.3 141.9 123.3 141 124.5 C 140.5 123.9 140.4 123.2 140.5 122.5 C 141.4 121.8 141.7 120.8 141.5 119.5 C 140.5 119.5 139.5 119.5 138.5 119.5 C 137.1 118.8 135.6 118.1 134 117.5 C 132.8 116.1 132.6 114.8 133.5 113.5 C 134.3 114.8 135.3 115.8 136.5 116.5 C 137.6 116.6 138.6 116.9 139.5 117.5 C 142.6 119.1 144.4 121.8 145 125.5 C 145 120.4 144.1 115.4 142.5 110.5 Z"/></g>
<g><path style="opacity: 1" fill="#f1d6b2" d="M 139.5 113.5 C 139.5 114.8 139.5 116.2 139.5 117.5 C 138.6 116.9 137.6 116.6 136.5 116.5 C 136.8 114.9 137.8 113.9 139.5 113.5 Z"/></g>
<g><path style="opacity: 1" fill="#f4eada" d="M 138.5 119.5 C 139.5 119.5 140.5 119.5 141.5 119.5 C 141.7 120.8 141.4 121.8 140.5 122.5 C 139.7 123.4 138.9 124.4 138 125.5 C 137.5 124.9 137.4 124.2 137.5 123.5 C 137.5 122.8 137.5 122.2 137.5 121.5 C 138.3 121.2 138.7 120.5 138.5 119.5 Z"/></g>
<g><path style="opacity: 1" fill="#e49d74" d="M 85.5 121.5 C 88.2 121.5 90.8 121.5 93.5 121.5 C 93.2 125.5 92.8 129.5 92.5 133.5 C 89.2 133 85.9 132.5 82.5 132 C 83.8 129.7 85.2 127.3 86.5 125 C 84.5 125.4 82.5 126.3 80.5 127.5 C 79.7 125.6 78.7 124 77.5 122.5 C 77.9 121.4 78.6 120.4 79.5 119.5 C 81.5 120.2 83.5 120.8 85.5 121.5 Z"/></g>
<g><path style="opacity: 1" fill="#de5f34" d="M 110.5 117.5 C 111.5 118.2 112.5 118.8 113.5 119.5 C 112.4 120.3 112.4 121.3 113.5 122.5 C 112 122.3 110.6 121.6 109.5 120.5 C 108.7 123.6 110.1 125.8 113.5 127 C 110.2 126.7 107.3 125.2 105 122.5 C 104.6 124.2 104.8 125.9 105.5 127.5 C 104.5 130.1 103.5 130.1 102.5 127.5 C 102.6 125.3 101.9 125 100.5 126.5 C 99.9 124.7 99.1 123.1 98 121.5 C 97.7 121.8 97.3 122.2 97 122.5 C 95.6 120 95.4 117.5 96.5 115 C 93.6 114.8 91 114.3 88.5 113.5 C 90.9 113.7 93.2 113.5 95.5 113 C 96.4 112.3 97 111.5 97.5 110.5 C 96 108.1 96.3 107.4 98.5 108.5 C 99.2 108.5 99.8 108.5 100.5 108.5 C 102.7 109.2 102.4 110.1 99.5 111 C 100.3 111.3 101 111.8 101.5 112.5 C 100.2 114.5 98.5 116.2 96.5 117.5 C 98.5 118.2 100.5 118.8 102.5 119.5 C 101.6 120.3 100.6 120.8 99.5 121 C 101.6 121.7 103.6 121.5 105.5 120.5 C 107.8 114.3 110.8 108.5 114.5 103 C 116.3 102.2 117.7 102.7 118.5 104.5 C 117.2 106.2 115.8 107.8 114.5 109.5 C 116 110.5 117.3 111.6 118.5 113 C 116.2 113 113.9 112.9 111.5 112.5 C 111.4 114.2 111 115.9 110.5 117.5 Z"/></g>
<g><path style="opacity: 1" fill="#f8f4ef" d="M 113.5 122.5 C 116.1 125.2 117.1 128.6 116.5 132.5 C 115.4 134.2 113.7 134.9 111.5 134.5 C 111.8 131.5 110.5 130.2 107.5 130.5 C 107.1 129.3 106.4 128.3 105.5 127.5 C 104.8 125.9 104.6 124.2 105 122.5 C 107.3 125.2 110.2 126.7 113.5 127 C 110.1 125.8 108.7 123.6 109.5 120.5 C 110.6 121.6 112 122.3 113.5 122.5 Z"/></g>
<g><path style="opacity: 1" fill="#f8e0cf" d="M 129.5 122.5 C 130.6 123.4 130.6 124.2 129.5 125 C 128.2 125.5 126.9 125.7 125.5 125.5 C 124.9 124.5 124.2 123.5 123.5 122.5 C 125.5 121.5 127.5 121.5 129.5 122.5 Z"/></g>
<g><path style="opacity: 1" fill="#dc9977" d="M 113.5 122.5 C 115.1 123 116.8 123.4 118.5 123.5 C 117.9 126 117.9 128.4 118.5 130.5 C 118.2 131.5 117.5 132.2 116.5 132.5 C 117.1 128.6 116.1 125.2 113.5 122.5 Z"/></g>
<g><path style="opacity: 1" fill="#e7976d" d="M 140.5 122.5 C 140.4 123.2 140.5 123.9 141 124.5 C 141.9 123.3 142.7 123.3 143.5 124.5 C 141.5 126.2 139.2 126.8 136.5 126.5 C 136.3 125.2 136.6 124.2 137.5 123.5 C 137.4 124.2 137.5 124.9 138 125.5 C 138.9 124.4 139.7 123.4 140.5 122.5 Z"/></g>
<g><path style="opacity: 1" fill="#cf7d65" d="M 162.5 128.5 C 160.5 128.5 158.5 128.5 156.5 128.5 C 156.3 125.4 156 122.5 155.5 120 C 157.6 119.2 159.6 119.4 161.5 120.5 C 156.4 122.4 156.4 123.9 161.5 125 C 160.1 125.2 158.7 125.7 157.5 126.5 C 159.3 127.2 161 127.8 162.5 128.5 Z"/></g>
<g><path style="opacity: 1" fill="#d68160" d="M 43.5 128.5 C 42.2 126.8 40.6 125.5 38.5 124.5 C 38.8 123.5 39.5 122.9 40.5 122.5 C 41.7 123.7 42.9 123.7 44 122.5 C 44.8 124.7 44.6 126.7 43.5 128.5 Z"/></g>
<g><path style="opacity: 1" fill="#e4916e" d="M 100.5 128.5 C 99.5 130.2 98.2 131.5 96.5 132.5 C 96.9 130.1 97.6 127.8 98.5 125.5 C 99.2 126.6 99.8 127.6 100.5 128.5 Z"/></g>
<g><path style="opacity: 1" fill="#cf492b" d="M 38.5 124.5 C 40.6 125.5 42.2 126.8 43.5 128.5 C 42.9 132 43.6 135 45.5 137.5 C 44.2 139 43.2 140.7 42.5 142.5 C 36 142.5 36 141.8 42.5 140.5 C 40.9 139.7 39.3 139.2 37.5 139 C 39.4 138.8 41 138.3 42.5 137.5 C 42.6 136 42.2 134.7 41.5 133.5 C 41 132.7 39.7 132 37.5 131.5 C 39 130.5 40.7 130.2 42.5 130.5 C 42.6 129.4 42.5 128.4 42 127.5 C 40.9 129.3 39.4 129.8 37.5 129 C 38.3 128.7 39 128.2 39.5 127.5 C 38.9 126.6 38.5 125.6 38.5 124.5 Z"/></g>
<g><path style="opacity: 1" fill="#f1dfcd" d="M 67.5 114.5 C 67.6 115.1 67.9 115.6 68.5 116 C 67.3 116.2 66.3 116.7 65.5 117.5 C 65.2 118.2 64.9 118.8 64.5 119.5 C 65.7 120.3 66.7 121.3 67.5 122.5 C 66.4 124.5 66.4 126.5 67.5 128.5 C 69.1 130.2 68.8 131.2 66.5 131.5 C 66.2 131.5 65.8 131.5 65.5 131.5 C 65.6 129.4 64.9 129 63.5 130.5 C 62.8 130 62.3 129.3 62 128.5 C 61 129.8 60 129.8 59 128.5 C 58.6 130.1 57.7 131.4 56.5 132.5 C 57.8 134.2 59.1 134.5 60.5 133.5 C 61.8 133.5 63.2 133.5 64.5 133.5 C 64.2 135.1 63.2 136.1 61.5 136.5 C 60.5 135.7 59.5 135.5 58.5 136 C 59.3 137 59.7 138.2 59.5 139.5 C 65.3 139.8 71 140.8 76.5 142.5 C 76.5 142.8 76.5 143.2 76.5 143.5 C 75.3 144.2 74 144.6 72.5 144.5 C 67.4 142.8 62.1 141.5 56.5 140.5 C 55.5 135.4 55.2 130 55.5 124.5 C 58.5 125.7 61.5 125.7 64.5 124.5 C 62.4 123.1 60 122.1 57.5 121.5 C 57.9 120.8 58.2 120.2 58.5 119.5 C 58.4 117.9 59 116.7 60.5 116 C 59.5 115.5 58.8 114.6 58.5 113.5 C 59.6 111.4 60.6 109.2 61.5 107 C 62.2 106.3 62.8 106.3 63.5 107 C 62.4 108.8 61.4 110.6 60.5 112.5 C 63 113.2 65.3 113.8 67.5 114.5 Z"/></g>
<g><path style="opacity: 1" fill="#f1d2be" d="M 118.5 123.5 C 121 125.7 121 128 118.5 130.5 C 117.9 128.4 117.9 126 118.5 123.5 Z"/></g>
<g><path style="opacity: 1" fill="#e8b488" d="M 133.5 125.5 C 131.5 126.8 129.9 128.5 128.5 130.5 C 127.7 131.4 126.7 131.7 125.5 131.5 C 123 129.3 123 127.3 125.5 125.5 C 125.9 126.7 126.7 127.4 128 127.5 C 129.6 126.7 131.1 125.7 132.5 124.5 C 133.1 124.6 133.4 125 133.5 125.5 Z"/></g>
<g><path style="opacity: 1" fill="#ea9d71" d="M 133.5 125.5 C 133.6 126.6 134.3 127.3 135.5 127.5 C 139.3 129.2 142.8 128.8 146 126.5 C 146.8 129.6 146.7 132.6 145.5 135.5 C 142.7 134 139.9 132.7 137 131.5 C 136.5 131.7 136 131.8 135.5 132 C 136.4 132.3 137.1 132.8 137.5 133.5 C 134.9 135.6 131.9 136.9 128.5 137.5 C 128.4 135.1 127.4 133.1 125.5 131.5 C 126.7 131.7 127.7 131.4 128.5 130.5 C 129.9 128.5 131.5 126.8 133.5 125.5 Z"/></g>
<g><path style="opacity: 1" fill="#cf8e71" d="M 162.5 129.5 C 163.5 130.9 163.8 132.6 163.5 134.5 C 162.6 135.2 162.3 136.2 162.5 137.5 C 160.8 137.5 159.2 137.5 157.5 137.5 C 157.4 134.4 157.9 134.1 159 136.5 C 159.8 135.3 160.7 134.2 161.5 133 C 161.3 132.5 161.2 132 161 131.5 C 160 132.5 158.8 132.7 157.5 132 C 159.1 130.9 160.7 130.1 162.5 129.5 Z"/></g>
<g><path style="opacity: 1" fill="#e38d5e" d="M 77.5 122.5 C 78.7 124 79.7 125.6 80.5 127.5 C 82.5 126.3 84.5 125.4 86.5 125 C 85.2 127.3 83.8 129.7 82.5 132 C 85.9 132.5 89.2 133 92.5 133.5 C 87.4 133.6 82.2 133.6 77 133.5 C 75.4 131.9 75 130.3 76 128.5 C 74.3 131.7 72.3 132.1 70 129.5 C 69.5 130.4 69.4 131.4 69.5 132.5 C 68.2 132.7 67.2 132.4 66.5 131.5 C 68.8 131.2 69.1 130.2 67.5 128.5 C 68.2 128.6 68.9 128.5 69.5 128 C 68.3 126.5 68.3 125 69.5 123.5 C 71.2 125.7 72.6 125.2 73.5 122 C 73.2 121.7 72.8 121.3 72.5 121 C 73.4 120.5 74.4 120.4 75.5 120.5 C 75.3 121.7 75.6 122.7 76.5 123.5 C 77.1 123.4 77.4 123 77.5 122.5 Z"/></g>
<g><path style="opacity: 1" fill="#db8a67" d="M 41.5 133.5 C 42.2 134.7 42.6 136 42.5 137.5 C 40.2 137 37.9 136.7 35.5 136.5 C 36 135.5 36.6 134.7 37.5 134 C 39 134.4 40.3 134.2 41.5 133.5 Z"/></g>
<g><path style="opacity: 1" fill="#e0340c" d="M 82.5 100.5 C 83.6 100.4 84.6 100.5 85.5 101 C 83.7 103.1 83.1 105.6 83.5 108.5 C 83.3 111.3 84.7 113 87.5 113.5 C 87.8 113.5 88.2 113.5 88.5 113.5 C 91 114.3 93.6 114.8 96.5 115 C 95.4 117.5 95.6 120 97 122.5 C 97.3 122.2 97.7 121.8 98 121.5 C 99.1 123.1 99.9 124.7 100.5 126.5 C 100.5 127.2 100.5 127.8 100.5 128.5 C 99.8 127.6 99.2 126.6 98.5 125.5 C 97.6 127.8 96.9 130.1 96.5 132.5 C 96.2 133.2 95.8 133.8 95.5 134.5 C 94.8 135.7 94.2 137.1 93.5 138.5 C 90.2 137.6 86.9 137.2 83.5 137.5 C 76.9 136.9 70.6 135.6 64.5 133.5 C 63.2 133.5 61.8 133.5 60.5 133.5 C 60 133.4 59.6 133.1 59.5 132.5 C 61.4 131.5 63.4 131.2 65.5 131.5 C 65.8 131.5 66.2 131.5 66.5 131.5 C 67.2 132.4 68.2 132.7 69.5 132.5 C 69.4 131.4 69.5 130.4 70 129.5 C 72.3 132.1 74.3 131.7 76 128.5 C 75 130.3 75.4 131.9 77 133.5 C 82.2 133.6 87.4 133.6 92.5 133.5 C 92.8 129.5 93.2 125.5 93.5 121.5 C 93.6 120.5 93.3 119.7 92.5 119 C 88.7 117.4 85.4 115.2 82.5 112.5 C 82.1 111.3 81.4 110.3 80.5 109.5 C 80.5 108.8 80.5 108.2 80.5 107.5 C 80.3 105.5 80.5 103.5 81 101.5 C 81.4 100.9 81.9 100.6 82.5 100.5 Z"/></g>
<g><path style="opacity: 1" fill="#f6ece1" d="M 102.5 127.5 C 102.1 129.3 101.5 130.9 100.5 132.5 C 100.8 133.7 101.3 133.7 102 132.5 C 102.2 133.2 102.3 133.8 102.5 134.5 C 101.3 139.6 102.3 140.3 105.5 136.5 C 104.3 135 104.3 133.7 105.5 132.5 C 107.5 133.2 109.5 133.8 111.5 134.5 C 112.4 135.7 112.6 137.1 112 138.5 C 105 143.2 99.5 141.9 95.5 134.5 C 95.8 133.8 96.2 133.2 96.5 132.5 C 98.2 131.5 99.5 130.2 100.5 128.5 C 100.5 127.8 100.5 127.2 100.5 126.5 C 101.9 125 102.6 125.3 102.5 127.5 Z"/></g>
<g><path style="opacity: 1" fill="#d49879" d="M 102.5 127.5 C 103.5 130.1 104.5 130.1 105.5 127.5 C 106.4 128.3 107.1 129.3 107.5 130.5 C 106.5 130.8 105.8 131.5 105.5 132.5 C 104.3 133.7 104.3 135 105.5 136.5 C 102.3 140.3 101.3 139.6 102.5 134.5 C 102.3 133.8 102.2 133.2 102 132.5 C 101.3 133.7 100.8 133.7 100.5 132.5 C 101.5 130.9 102.1 129.3 102.5 127.5 Z"/></g>
<g><path style="opacity: 1" fill="#d4946f" d="M 45.5 137.5 C 46.4 138.2 46.7 139.2 46.5 140.5 C 45.1 141 44.1 142 43.5 143.5 C 42.9 143.4 42.6 143 42.5 142.5 C 43.2 140.7 44.2 139 45.5 137.5 Z"/></g>
<g><path style="opacity: 1" fill="#f0d5c1" d="M 153.5 126.5 C 154.3 129 154.8 131.6 155 134.5 C 156.3 132.8 156.8 130.8 156.5 128.5 C 158.5 128.5 160.5 128.5 162.5 128.5 C 162.5 128.8 162.5 129.2 162.5 129.5 C 160.7 130.1 159.1 130.9 157.5 132 C 158.8 132.7 160 132.5 161 131.5 C 161.2 132 161.3 132.5 161.5 133 C 160.7 134.2 159.8 135.3 159 136.5 C 157.9 134.1 157.4 134.4 157.5 137.5 C 159.2 137.5 160.8 137.5 162.5 137.5 C 162.3 136.2 162.6 135.2 163.5 134.5 C 163.8 137.1 163.5 139.4 162.5 141.5 C 162.6 139.6 162.1 139.3 161 140.5 C 157.5 137.4 156 138 156.5 142.5 C 155.8 142.2 155.2 141.9 154.5 141.5 C 153.8 142.6 153.2 143.6 152.5 144.5 C 153.3 138.5 153.6 132.5 153.5 126.5 Z"/></g>
<g><path style="opacity: 1" fill="#e14f20" d="M 131.5 122.5 C 130.8 122.5 130.2 122.5 129.5 122.5 C 127.5 121.5 125.5 121.5 123.5 122.5 C 124.2 123.5 124.9 124.5 125.5 125.5 C 123 127.3 123 129.3 125.5 131.5 C 127.4 133.1 128.4 135.1 128.5 137.5 C 131.9 136.9 134.9 135.6 137.5 133.5 C 138.4 134.2 138.7 135.2 138.5 136.5 C 137.6 137.6 137.2 138.9 137.5 140.5 C 137.2 140.5 136.8 140.5 136.5 140.5 C 132.3 139.6 128 139 123.5 138.5 C 123.5 139.5 123.5 140.5 123.5 141.5 C 124.6 141.4 125.6 141.5 126.5 142 C 124.7 143.5 122.7 143.8 120.5 143 C 121.7 142.3 121.7 141.8 120.5 141.5 C 119.7 142 119.4 142.6 119.5 143.5 C 118.5 143.8 117.9 144.5 117.5 145.5 C 118.5 147.1 118.5 148.8 117.5 150.5 C 117.2 151.3 116.7 152 116 152.5 C 115.1 151.3 114.3 151.3 113.5 152.5 C 115.8 153.8 117.8 153.4 119.5 151.5 C 119.9 151.4 120.3 151.6 120.5 152 C 119.1 153.6 118.1 155.4 117.5 157.5 C 114.4 155.5 111.1 155 107.5 156 C 108.3 156.7 108.6 157.5 108.5 158.5 C 105.7 159 104.1 160.6 103.5 163.5 C 101.9 164.9 100.6 166.6 99.5 168.5 C 98.6 169.6 97.6 169.7 96.5 169 C 98.9 166.4 100.9 163.5 102.5 160.5 C 103.6 158.5 104.9 156.7 106.5 155 C 106.2 154.7 105.8 154.3 105.5 154 C 107.1 153.5 108.8 153.3 110.5 153.5 C 112.2 154.7 112.9 154 112.5 151.5 C 110.1 150.7 107.8 150.4 105.5 150.5 C 102.7 147.6 99.7 144.7 96.5 142 C 95.6 141.5 94.6 141.4 93.5 141.5 C 91.4 141.6 89.8 140.9 88.5 139.5 C 86.8 138.8 85.2 138.2 83.5 137.5 C 86.9 137.2 90.2 137.6 93.5 138.5 C 94.2 137.1 94.8 135.7 95.5 134.5 C 99.5 141.9 105 143.2 112 138.5 C 112.6 137.1 112.4 135.7 111.5 134.5 C 113.7 134.9 115.4 134.2 116.5 132.5 C 117.5 132.2 118.2 131.5 118.5 130.5 C 121 128 121 125.7 118.5 123.5 C 116.8 123.4 115.1 123 113.5 122.5 C 112.4 121.3 112.4 120.3 113.5 119.5 C 117.2 119.7 120.8 119.5 124.5 119 C 125.9 117.5 125.5 116.7 123.5 116.5 C 123.5 115.8 123.5 115.2 123.5 114.5 C 123.5 113 124.2 112.5 125.5 113 C 126.2 114.3 127.2 115.3 128.5 116 C 128.2 116.3 127.8 116.7 127.5 117 C 129.2 118 130.8 119 132.5 120 C 131.7 120.7 131.4 121.5 131.5 122.5 Z"/></g>
<g><path style="opacity: 1" fill="#db3714" d="M 103.5 33.5 C 120.3 35.1 131.8 43.8 138 59.5 C 140.9 70.2 139.4 80.2 133.5 89.5 C 136.8 93.3 140.3 97 144 100.5 C 149.8 108.2 153 116.8 153.5 126.5 C 153.6 132.5 153.3 138.5 152.5 144.5 C 146.4 166.6 132 179.6 109.5 183.5 C 107.3 183.8 105.3 183.5 103.5 182.5 C 124.4 180.1 138.9 169.1 147 149.5 C 154.1 127.8 149.3 109.3 132.5 94 C 131.6 93.3 130.9 93.5 130.5 94.5 C 129.5 94.3 128.8 94.7 128.5 95.5 C 126.4 96.6 124 96.8 121.5 96 C 120.6 95.3 120 94.5 119.5 93.5 C 119.5 90.9 120.5 88.9 122.5 87.5 C 122.8 87.5 123.2 87.5 123.5 87.5 C 125.1 87.2 126.4 87.6 127.5 88.5 C 127.5 88.8 127.5 89.2 127.5 89.5 C 125.8 89.3 124.1 89.5 122.5 90 C 121.7 90.7 121.4 91.5 121.5 92.5 C 123.3 96.4 125.4 96.4 128 92.5 C 133.6 84.3 135.9 75.3 135 65.5 C 128.4 43.5 113.6 33.5 90.5 35.5 C 89.8 35.5 89.5 35.2 89.5 34.5 C 91.8 34 94.1 33.7 96.5 33.5 C 97.3 32.5 98.4 31.9 100 31.5 C 101.4 31.9 102.6 32.5 103.5 33.5 Z"/></g>
<g><path style="opacity: 1" fill="#d9875f" d="M 127.5 89.5 C 126.7 93.2 124.7 94.2 121.5 92.5 C 121.4 91.5 121.7 90.7 122.5 90 C 124.1 89.5 125.8 89.3 127.5 89.5 Z"/></g>
<g><path style="opacity: 1" fill="#d58866" d="M 162.5 141.5 C 161.1 141.3 159.8 141.5 158.5 142 C 162.3 143.6 162.3 144.9 158.5 146 C 161.2 147 161.2 148 158.5 149 C 159.2 149.3 159.8 149.7 160.5 150 C 159.5 150.8 158.5 151.7 157.5 152.5 C 160 153.5 160 154.4 157.5 155 C 159 158.7 157.7 160.2 153.5 159.5 C 153.1 158.8 152.4 158.3 151.5 158 C 153.3 158 155 157.9 156.5 157.5 C 152.7 154.8 153.1 152.3 157.5 150 C 155.8 148.6 155.1 146.8 155.5 144.5 C 158.9 144.7 159.2 144 156.5 142.5 C 156 138 157.5 137.4 161 140.5 C 162.1 139.3 162.6 139.6 162.5 141.5 Z"/></g>
<g><path style="opacity: 1" fill="#d77551" d="M 42.5 159.5 C 43.8 159.5 44.8 160 45.5 161 C 44.3 161.9 43.5 163.1 43 164.5 C 42.6 163.9 42.1 163.6 41.5 163.5 C 40.9 163.3 40.6 162.8 40.5 162 C 41.1 161 41.7 160.2 42.5 159.5 Z"/></g>
<g><path style="opacity: 1" fill="#d06140" d="M 52.5 121.5 C 53.1 124.7 53.1 127.7 52.5 130.5 C 50.4 156.6 63 173.8 90.5 182 C 94.8 182.5 99.2 182.7 103.5 182.5 C 105.3 183.5 107.3 183.8 109.5 183.5 C 76.8 186.2 56.8 171.5 49.5 139.5 C 49.1 133.1 50.1 127.1 52.5 121.5 Z"/></g>
<g><path style="opacity: 1" fill="#f7f1e8" d="M 35.5 136.5 C 37.9 136.7 40.2 137 42.5 137.5 C 41 138.3 39.4 138.8 37.5 139 C 39.3 139.2 40.9 139.7 42.5 140.5 C 36 141.8 36 142.5 42.5 142.5 C 42.6 143 42.9 143.4 43.5 143.5 C 44.1 142 45.1 141 46.5 140.5 C 46.3 141.9 46.5 143.2 47 144.5 C 47.8 142.7 48.6 141 49.5 139.5 C 56.8 171.5 76.8 186.2 109.5 183.5 C 132 179.6 146.4 166.6 152.5 144.5 C 153.2 143.6 153.8 142.6 154.5 141.5 C 155.2 141.9 155.8 142.2 156.5 142.5 C 159.2 144 158.9 144.7 155.5 144.5 C 155.1 146.8 155.8 148.6 157.5 150 C 153.1 152.3 152.7 154.8 156.5 157.5 C 155 157.9 153.3 158 151.5 158 C 152.4 158.3 153.1 158.8 153.5 159.5 C 152.7 159.8 152.3 160.5 152.5 161.5 C 151.4 160.4 150.4 160.4 149.5 161.5 C 150.7 162.3 151.7 163.3 152.5 164.5 C 148.1 163.8 145.1 165.8 143.5 170.5 C 143.7 171.1 144 171.6 144.5 172 C 140.2 172.1 137.5 174.3 136.5 178.5 C 134.9 177.1 134.4 177.4 135 179.5 C 136 180.5 137 181.5 138 182.5 C 137.4 180.9 137.7 179.6 139 178.5 C 139.7 179 140.2 179.7 140.5 180.5 C 139.6 181.2 139.3 182.2 139.5 183.5 C 138.2 183.5 136.8 183.5 135.5 183.5 C 135.5 184.8 135.5 186.2 135.5 187.5 C 133.2 187.5 130.8 187.5 128.5 187.5 C 130.9 186.1 130.6 184.7 127.5 183.5 C 126.7 185.1 126.2 186.7 126 188.5 C 124.8 187.4 124.3 186.1 124.5 184.5 C 123.5 184.5 122.5 184.5 121.5 184.5 C 121.4 186.7 121.9 188.7 123 190.5 C 123.3 189.8 123.7 189.2 124 188.5 C 124.4 188.7 124.6 189.1 124.5 189.5 C 124.4 190.6 123.7 191.3 122.5 191.5 C 121.6 191.5 120.9 191.1 120.5 190.5 C 121 189.3 120.4 188.3 118.5 187.5 C 117.2 189.3 117.2 191 118.5 192.5 C 117.5 193.8 116.5 193.8 115.5 192.5 C 116.8 190.8 116.7 189.1 115 187.5 C 114.7 188.5 114.3 189.5 114 190.5 C 113 189.7 111.8 189.3 110.5 189.5 C 110.3 193.1 109.3 193.1 107.5 189.5 C 106 193.3 105 193.3 104.5 189.5 C 103.5 189.5 102.5 189.5 101.5 189.5 C 101.5 191.5 101.5 193.5 101.5 195.5 C 100.7 194 100.2 192.4 100 190.5 C 98.7 191.8 97.3 193.2 96 194.5 C 95.5 193.2 95.3 191.9 95.5 190.5 C 94.5 190.5 93.5 190.5 92.5 190.5 C 92.8 189.8 93.1 189.2 93.5 188.5 C 84.8 187.1 76.8 184.1 69.5 179.5 C 69.8 177.6 69.1 176.3 67.5 175.5 C 66.2 176 64.8 176.2 63.5 176 C 59.8 172.6 56.5 169 53.5 165 C 53.9 164 54.6 163.5 55.5 163.5 C 54.7 163.2 53.8 162.8 53 162.5 C 51 164 48.8 165.3 46.5 166.5 C 45.4 162.7 44.7 162.7 44.5 166.5 C 43.5 166.5 42.5 166.5 41.5 166.5 C 41.5 165.5 41.5 164.5 41.5 163.5 C 42.1 163.6 42.6 163.9 43 164.5 C 43.5 163.1 44.3 161.9 45.5 161 C 44.8 160 43.8 159.5 42.5 159.5 C 42.4 158.3 41.8 157.4 40.5 157 C 41.4 156.3 42 155.5 42.5 154.5 C 42.9 152.5 43.9 152.2 45.5 153.5 C 44.8 154.2 44.2 154.8 43.5 155.5 C 43.8 158.4 45.8 160.1 49.5 160.5 C 49 157.8 48.4 155.1 47.5 152.5 C 48 150.5 48.2 148.5 48 146.5 C 46.4 145.2 44.9 145.2 43.5 146.5 C 41.9 146.3 40.6 146.8 39.5 148 C 41.2 148.3 42.8 148.7 44.5 149 C 42.6 149.2 40.9 149.9 39.5 151 C 40.2 151.3 40.8 151.7 41.5 152 C 40.7 152.7 40.4 153.5 40.5 154.5 C 39.2 152.5 37.5 150.6 35.5 149 C 36 146.6 37.3 144.9 39.5 144 C 37.4 143.1 35.4 141.9 33.5 140.5 C 36 139.5 36 138.3 33.5 137 C 34.1 136.5 34.8 136.4 35.5 136.5 Z"/></g>
<g><path style="opacity: 1" fill="#d36746" d="M 43.5 146.5 C 45.4 148.1 46.7 150.1 47.5 152.5 C 48.4 155.1 49 157.8 49.5 160.5 C 45.8 160.1 43.8 158.4 43.5 155.5 C 44.2 154.8 44.8 154.2 45.5 153.5 C 43.9 152.2 42.9 152.5 42.5 154.5 C 41.8 154.5 41.2 154.5 40.5 154.5 C 40.4 153.5 40.7 152.7 41.5 152 C 40.8 151.7 40.2 151.3 39.5 151 C 40.9 149.9 42.6 149.2 44.5 149 C 42.8 148.7 41.2 148.3 39.5 148 C 40.6 146.8 41.9 146.3 43.5 146.5 Z"/></g>
<g><path style="opacity: 1" fill="#e29e82" d="M 43.5 146.5 C 44.9 145.2 46.4 145.2 48 146.5 C 48.2 148.5 48 150.5 47.5 152.5 C 46.7 150.1 45.4 148.1 43.5 146.5 Z"/></g>
<g><path style="opacity: 1" fill="#d79475" d="M 152.5 161.5 C 154.1 162.8 154.6 164.5 154 166.5 C 149.3 171.7 144.8 176.4 140.5 180.5 C 140.2 179.7 139.7 179 139 178.5 C 137.7 179.6 137.4 180.9 138 182.5 C 137 181.5 136 180.5 135 179.5 C 134.4 177.4 134.9 177.1 136.5 178.5 C 137.5 174.3 140.2 172.1 144.5 172 C 144 171.6 143.7 171.1 143.5 170.5 C 145.1 165.8 148.1 163.8 152.5 164.5 C 151.7 163.3 150.7 162.3 149.5 161.5 C 150.4 160.4 151.4 160.4 152.5 161.5 Z"/></g>
<g><path style="opacity: 1" fill="#d56943" d="M 67.5 175.5 C 66.5 177.2 65.5 178.9 64.5 180.5 C 63.5 181 62.7 181.6 62 182.5 C 62.3 180.8 62.7 179.2 63 177.5 C 59.7 181.7 57.8 181 57.5 175.5 C 56.2 175.5 54.8 175.5 53.5 175.5 C 53.5 173.9 54.1 172.5 55.5 171.5 C 55.2 171.2 54.8 170.8 54.5 170.5 C 50.5 173 49.1 171.8 50.5 167 C 49 167.3 47.6 167.2 46.5 166.5 C 48.8 165.3 51 164 53 162.5 C 53.8 162.8 54.7 163.2 55.5 163.5 C 54.6 163.5 53.9 164 53.5 165 C 56.5 169 59.8 172.6 63.5 176 C 64.8 176.2 66.2 176 67.5 175.5 Z"/></g>
<g><path style="opacity: 1" fill="#f8f3e7" d="M 146.5 167.5 C 147.5 167.5 148.5 167.5 149.5 167.5 C 148.8 171.3 147.8 171.3 146.5 167.5 Z"/></g>
<g><path style="opacity: 1" fill="#e09b83" d="M 67.5 175.5 C 69.1 176.3 69.8 177.6 69.5 179.5 C 67.9 180 66.2 180.4 64.5 180.5 C 65.5 178.9 66.5 177.2 67.5 175.5 Z"/></g>
<g><path style="opacity: 1" fill="#db3f1a" d="M 63.5 104.5 C 65.6 105.7 65.6 107.4 63.5 109.5 C 64.5 110.4 65.4 111.4 66 112.5 C 67 109.3 69.2 108 72.5 108.5 C 73.1 109.4 73.4 110.4 73.5 111.5 C 74.9 119 77.9 120 82.5 114.5 C 83.6 116.3 82.9 117.5 80.5 118 C 82.8 118.5 84.4 119.7 85.5 121.5 C 83.5 120.8 81.5 120.2 79.5 119.5 C 78.6 120.4 77.9 121.4 77.5 122.5 C 77.4 123 77.1 123.4 76.5 123.5 C 75.6 122.7 75.3 121.7 75.5 120.5 C 74.4 120.4 73.4 120.5 72.5 121 C 72.8 121.3 73.2 121.7 73.5 122 C 72.6 125.2 71.2 125.7 69.5 123.5 C 68.3 125 68.3 126.5 69.5 128 C 68.9 128.5 68.2 128.6 67.5 128.5 C 66.4 126.5 66.4 124.5 67.5 122.5 C 66.7 121.3 65.7 120.3 64.5 119.5 C 64.9 118.8 65.2 118.2 65.5 117.5 C 66.5 117.5 67.5 117.5 68.5 117.5 C 67.9 121.6 68.9 122.3 71.5 119.5 C 72.2 117.6 72.2 115.6 71.5 113.5 C 70 113.4 68.7 113.8 67.5 114.5 C 65.3 113.8 63 113.2 60.5 112.5 C 61.4 110.6 62.4 108.8 63.5 107 C 62.8 106.3 62.2 106.3 61.5 107 C 60.6 109.2 59.6 111.4 58.5 113.5 C 58.8 114.6 59.5 115.5 60.5 116 C 59 116.7 58.4 117.9 58.5 119.5 C 56.3 120.3 55.3 122 55.5 124.5 C 55.2 130 55.5 135.4 56.5 140.5 C 57.9 148.5 61.3 155.5 66.5 161.5 C 67.4 163 68.8 164 70.5 164.5 C 71.8 168.3 72.8 168.3 73.5 164.5 C 74.2 166.2 74.8 167.8 75.5 169.5 C 75.8 170.3 76.5 170.7 77.5 170.5 C 78.3 171.4 79.3 172.1 80.5 172.5 C 83.1 173.8 85.7 174.8 88.5 175.5 C 89.6 176.4 90.9 176.8 92.5 176.5 C 94.3 176.6 95.9 176.3 97.5 175.5 C 99.1 176.6 101 177.3 103 177.5 C 107.7 177.2 112.2 176.2 116.5 174.5 C 118 174 119.3 173.3 120.5 172.5 C 123 171.8 125.3 170.8 127.5 169.5 C 121.3 175.1 114 178.2 105.5 179 C 80.1 181.2 62.9 170.4 54 146.5 C 53 141.2 52.5 135.9 52.5 130.5 C 53.1 127.7 53.1 124.7 52.5 121.5 C 53.5 117.1 55.4 113.1 58 109.5 C 59.1 106.9 60.9 105.3 63.5 104.5 Z"/></g>
<g><path style="opacity: 1" fill="#e3a57f" d="M 58.5 119.5 C 58.2 120.2 57.9 120.8 57.5 121.5 C 60 122.1 62.4 123.1 64.5 124.5 C 61.5 125.7 58.5 125.7 55.5 124.5 C 55.3 122 56.3 120.3 58.5 119.5 Z"/></g>
<g><path style="opacity: 1" fill="#e69668" d="M 65.5 117.5 C 66.3 116.7 67.3 116.2 68.5 116 C 67.9 115.6 67.6 115.1 67.5 114.5 C 68.7 113.8 70 113.4 71.5 113.5 C 72.2 115.6 72.2 117.6 71.5 119.5 C 68.9 122.3 67.9 121.6 68.5 117.5 C 67.5 117.5 66.5 117.5 65.5 117.5 Z"/></g>
<g><path style="opacity: 1" fill="#f7e7da" d="M 130.5 94.5 C 130.9 93.5 131.6 93.3 132.5 94 C 149.3 109.3 154.1 127.8 147 149.5 C 138.9 169.1 124.4 180.1 103.5 182.5 C 99.2 182.7 94.8 182.5 90.5 182 C 63 173.8 50.4 156.6 52.5 130.5 C 52.5 135.9 53 141.2 54 146.5 C 62.9 170.4 80.1 181.2 105.5 179 C 114 178.2 121.3 175.1 127.5 169.5 C 130.1 168.1 132.6 166.4 135 164.5 C 138 161.2 140.5 157.5 142.5 153.5 C 146.3 146.5 148 139 147.5 131 C 148.4 123.4 146.7 116.6 142.5 110.5 C 142.7 109.5 142.3 108.8 141.5 108.5 C 141.2 105.8 139.8 103.8 137.5 102.5 C 135.9 99.2 133.6 96.6 130.5 94.5 Z"/></g>
<g><path style="opacity: 1" fill="#ecc6a7" d="M 80.5 172.5 C 84.2 172.9 88 172.9 92 172.5 C 92.3 174.9 91.2 175.9 88.5 175.5 C 85.7 174.8 83.1 173.8 80.5 172.5 Z"/></g>
<g><path style="opacity: 1" fill="#e38358" d="M 92.5 176.5 C 90.9 176.8 89.6 176.4 88.5 175.5 C 91.2 175.9 92.3 174.9 92 172.5 C 88 172.9 84.2 172.9 80.5 172.5 C 79.3 172.1 78.3 171.4 77.5 170.5 C 79.7 170.6 81.9 170.3 84 169.5 C 88.7 171 93.5 171.9 98.5 172 C 98 174.1 97 174.6 95.5 173.5 C 94.1 174.2 93.1 175.2 92.5 176.5 Z"/></g>
<g><path style="opacity: 1" fill="#e4a07b" d="M 120.5 172.5 C 119.3 173.3 118 174 116.5 174.5 C 113.9 172.5 110.9 171.5 107.5 171.5 C 107.5 170.8 107.5 170.2 107.5 169.5 C 111.9 169.5 112.2 169 108.5 168 C 112.7 167.4 116.7 168 120.5 170 C 109.9 170.5 109.9 171.4 120.5 172.5 Z"/></g>
<g><path style="opacity: 1" fill="#d7643f" d="M 107.5 163.5 C 106.8 165.3 105.8 167 104.5 168.5 C 105.3 169.4 106.3 169.7 107.5 169.5 C 107.5 170.2 107.5 170.8 107.5 171.5 C 104.8 171.7 102.1 171.5 99.5 171 C 102 169.5 103.7 167.3 104.5 164.5 C 105.3 163.6 106.1 162.6 107 161.5 C 107.5 162.1 107.6 162.8 107.5 163.5 Z"/></g>
<g><path style="opacity: 1" fill="#f2dcc7" d="M 92.5 158.5 C 92.8 158.5 93.2 158.5 93.5 158.5 C 93.4 159.4 93.7 160 94.5 160.5 C 97.3 159.2 100 159.2 102.5 160.5 C 100.9 163.5 98.9 166.4 96.5 169 C 97.6 169.7 98.6 169.6 99.5 168.5 C 100.6 166.6 101.9 164.9 103.5 163.5 C 104.2 163.5 104.5 163.8 104.5 164.5 C 103.7 167.3 102 169.5 99.5 171 C 102.1 171.5 104.8 171.7 107.5 171.5 C 110.9 171.5 113.9 172.5 116.5 174.5 C 112.2 176.2 107.7 177.2 103 177.5 C 101 177.3 99.1 176.6 97.5 175.5 C 95.9 176.3 94.3 176.6 92.5 176.5 C 93.1 175.2 94.1 174.2 95.5 173.5 C 97 174.6 98 174.1 98.5 172 C 93.5 171.9 88.7 171 84 169.5 C 81.9 170.3 79.7 170.6 77.5 170.5 C 76.5 170.7 75.8 170.3 75.5 169.5 C 81.2 169.1 85.5 166.5 88.5 161.5 C 89.8 160.5 91.2 159.5 92.5 158.5 Z"/></g>
<g><path style="opacity: 1" fill="#e58250" d="M 100.5 172.5 C 104.3 171.9 107.6 172.8 110.5 175 C 107.8 175.7 105.2 175.7 102.5 175 C 101.2 174.6 100.6 173.8 100.5 172.5 Z"/></g>
<g><path style="opacity: 1" fill="#f1decb" d="M 127.5 169.5 C 125.3 170.8 123 171.8 120.5 172.5 C 109.9 171.4 109.9 170.5 120.5 170 C 116.7 168 112.7 167.4 108.5 168 C 112.2 169 111.9 169.5 107.5 169.5 C 106.3 169.7 105.3 169.4 104.5 168.5 C 105.8 167 106.8 165.3 107.5 163.5 C 108.5 161 109.5 161 110.5 163.5 C 110.2 164.2 109.8 164.8 109.5 165.5 C 111.1 166.6 112.7 166.8 114.5 166 C 112.6 164.9 112.4 164.1 114 163.5 C 116.4 165.1 118.9 166.4 121.5 167.5 C 122.5 167.3 123.5 167.2 124.5 167 C 123.5 165.5 122.2 164.3 120.5 163.5 C 121 162.7 121.6 162.4 122.5 162.5 C 128 162.1 132.7 161.2 136.5 160 C 133.8 163.6 130.8 166.7 127.5 169.5 Z"/></g>
<g><path style="opacity: 1" fill="#de6b47" d="M 94.5 162.5 C 95.5 162.5 96.2 163 96.5 164 C 96.1 166 95.1 167.5 93.5 168.5 C 93.2 168.2 92.8 167.8 92.5 167.5 C 94 166.2 94.6 164.5 94.5 162.5 Z"/></g>
<g><path style="opacity: 1" fill="#d37b55" d="M 141.5 153.5 C 141.8 153.5 142.2 153.5 142.5 153.5 C 140.5 157.5 138 161.2 135 164.5 C 132.6 166.4 130.1 168.1 127.5 169.5 C 130.8 166.7 133.8 163.6 136.5 160 C 132.7 161.2 128 162.1 122.5 162.5 C 122.5 162.2 122.5 161.8 122.5 161.5 C 125.5 161.9 126.5 160.9 125.5 158.5 C 129.8 157.7 134.1 157.2 138.5 157 C 139.1 156.6 139.4 156.1 139.5 155.5 C 140.2 154.8 140.8 154.2 141.5 153.5 Z"/></g>
<g><path style="opacity: 1" fill="#eb8353" d="M 70.5 164.5 C 71.5 164.5 72.5 164.5 73.5 164.5 C 72.8 168.3 71.8 168.3 70.5 164.5 Z"/></g>
<g><path style="opacity: 1" fill="#e59d76" d="M 69.5 157.5 C 73.3 158.7 77.2 160 81 161.5 C 83 161.3 84.9 160.6 86.5 159.5 C 87.2 160.2 87.8 160.9 88.5 161.5 C 85.5 166.5 81.2 169.1 75.5 169.5 C 74.8 167.8 74.2 166.2 73.5 164.5 C 72.5 164.5 71.5 164.5 70.5 164.5 C 68.8 164 67.4 163 66.5 161.5 C 69.8 161 70.2 159.9 67.5 158 C 68.1 157.5 68.8 157.4 69.5 157.5 Z"/></g>
<g><path style="opacity: 1" fill="#e7af87" d="M 108.5 158.5 C 110.9 159 112.4 160 113 161.5 C 114 161.2 114.5 160.5 114.5 159.5 C 117.3 159.7 120 160.4 122.5 161.5 C 122.5 161.8 122.5 162.2 122.5 162.5 C 121.6 162.4 121 162.7 120.5 163.5 C 122.2 164.3 123.5 165.5 124.5 167 C 123.5 167.2 122.5 167.3 121.5 167.5 C 118.9 166.4 116.4 165.1 114 163.5 C 112.4 164.1 112.6 164.9 114.5 166 C 112.7 166.8 111.1 166.6 109.5 165.5 C 109.8 164.8 110.2 164.2 110.5 163.5 C 109.5 161 108.5 161 107.5 163.5 C 107.6 162.8 107.5 162.1 107 161.5 C 106.1 162.6 105.3 163.6 104.5 164.5 C 104.5 163.8 104.2 163.5 103.5 163.5 C 104.1 160.6 105.7 159 108.5 158.5 Z"/></g>
<g><path style="opacity: 1" fill="#e67c49" d="M 93.5 141.5 C 94.6 141.4 95.6 141.5 96.5 142 C 99.7 144.7 102.7 147.6 105.5 150.5 C 105 150.6 104.6 150.9 104.5 151.5 C 106.6 152.2 108.6 152.8 110.5 153.5 C 108.8 153.3 107.1 153.5 105.5 154 C 105.8 154.3 106.2 154.7 106.5 155 C 104.9 156.7 103.6 158.5 102.5 160.5 C 100 159.2 97.3 159.2 94.5 160.5 C 93.7 160 93.4 159.4 93.5 158.5 C 94.4 157.8 94.7 156.8 94.5 155.5 C 96.7 155.6 98.7 155.1 100.5 154 C 97.2 153 93.8 152 90.5 151 C 97 149.5 97 148 90.5 146.5 C 94.4 144.7 94.1 143.6 89.5 143 C 91.1 142.8 92.4 142.3 93.5 141.5 Z"/></g>
<g><path style="opacity: 1" fill="#e9b590" d="M 56.5 140.5 C 62.1 141.5 67.4 142.8 72.5 144.5 C 69 145.9 65.3 147.1 61.5 148 C 62.9 150.3 63.5 152.8 63.5 155.5 C 66.9 155.2 70.2 155.5 73.5 156.5 C 72.1 156.8 70.8 157.1 69.5 157.5 C 68.8 157.4 68.1 157.5 67.5 158 C 70.2 159.9 69.8 161 66.5 161.5 C 61.3 155.5 57.9 148.5 56.5 140.5 Z"/></g>
<g><path style="opacity: 1" fill="#dfa88b" d="M 131.5 153.5 C 132.6 153.4 133.6 153.5 134.5 154 C 133.2 154.7 133.2 155.3 134.5 156 C 131.5 156.5 128.5 156.7 125.5 156.5 C 124.3 155.8 122.9 155.2 121.5 154.5 C 121.9 153.3 122.6 152.3 123.5 151.5 C 125.8 153.2 128.3 154.6 131 155.5 C 131.5 154.9 131.6 154.2 131.5 153.5 Z"/></g>
<g><path style="opacity: 1" fill="#f4cda7" d="M 119.5 151.5 C 117.8 153.4 115.8 153.8 113.5 152.5 C 114.3 151.3 115.1 151.3 116 152.5 C 116.7 152 117.2 151.3 117.5 150.5 C 118.9 149 119.6 149.3 119.5 151.5 Z"/></g>
<g><path style="opacity: 1" fill="#e08458" d="M 119.5 143.5 C 120.2 145.2 121.5 145.8 123.5 145.5 C 125.2 145.9 126.8 146.4 128.5 147 C 126.1 147.7 123.8 147.5 121.5 146.5 C 120.5 147 120.3 147.7 121 148.5 C 124.3 150.6 127.8 152.3 131.5 153.5 C 131.6 154.2 131.5 154.9 131 155.5 C 128.3 154.6 125.8 153.2 123.5 151.5 C 122.6 152.3 121.9 153.3 121.5 154.5 C 122.9 155.2 124.3 155.8 125.5 156.5 C 121.8 157.7 118.1 158.7 114.5 159.5 C 114.5 160.5 114 161.2 113 161.5 C 112.4 160 110.9 159 108.5 158.5 C 108.6 157.5 108.3 156.7 107.5 156 C 111.1 155 114.4 155.5 117.5 157.5 C 118.1 155.4 119.1 153.6 120.5 152 C 120.3 151.6 119.9 151.4 119.5 151.5 C 119.6 149.3 118.9 149 117.5 150.5 C 118.5 148.8 118.5 147.1 117.5 145.5 C 117.9 144.5 118.5 143.8 119.5 143.5 Z"/></g>
<g><path style="opacity: 1" fill="#ddb38a" d="M 105.5 150.5 C 107.8 150.4 110.1 150.7 112.5 151.5 C 112.9 154 112.2 154.7 110.5 153.5 C 108.6 152.8 106.6 152.2 104.5 151.5 C 104.6 150.9 105 150.6 105.5 150.5 Z"/></g>
<g><path style="opacity: 1" fill="#f1e0cc" d="M 123.5 145.5 C 123.7 144.9 124.2 144.6 125 144.5 C 128.2 145.1 131.4 145.8 134.5 146.5 C 135.8 147.4 135.6 148 134 148.5 C 131.2 147.1 128.7 147.6 126.5 150 C 127.4 150.4 128.3 150.9 129 151.5 C 129.5 150.5 130.4 149.8 131.5 149.5 C 133.9 149.9 136.2 150.6 138.5 151.5 C 138 152.5 137.4 153.3 136.5 154 C 137.7 154.2 138.7 154.7 139.5 155.5 C 139.4 156.1 139.1 156.6 138.5 157 C 134.1 157.2 129.8 157.7 125.5 158.5 C 126.5 160.9 125.5 161.9 122.5 161.5 C 120 160.4 117.3 159.7 114.5 159.5 C 118.1 158.7 121.8 157.7 125.5 156.5 C 128.5 156.7 131.5 156.5 134.5 156 C 133.2 155.3 133.2 154.7 134.5 154 C 133.6 153.5 132.6 153.4 131.5 153.5 C 127.8 152.3 124.3 150.6 121 148.5 C 120.3 147.7 120.5 147 121.5 146.5 C 123.8 147.5 126.1 147.7 128.5 147 C 126.8 146.4 125.2 145.9 123.5 145.5 Z"/></g>
<g><path style="opacity: 1" fill="#df703f" d="M 76.5 143.5 C 80.3 143.2 84 143.7 87.5 145 C 85.2 145.8 83.1 145.6 81 144.5 C 77.1 145.6 73.3 146.9 69.5 148.5 C 67.9 148 66.2 147.6 64.5 147.5 C 65 152.6 67 153.4 70.5 150 C 73.2 149.3 75.9 149.4 78.5 150.5 C 79.2 150 79.7 149.3 80 148.5 C 81.4 149.4 82.9 149.7 84.5 149.5 C 84.3 150.8 84.7 152 85.5 153 C 82 154.6 78.4 155.8 74.5 156.5 C 77.2 157.8 79.8 159.2 82.5 160.5 C 83.7 159.3 83.7 158.2 82.5 157 C 83.7 155.9 85 155.1 86.5 154.5 C 88.8 155.7 90.8 157 92.5 158.5 C 91.2 159.5 89.8 160.5 88.5 161.5 C 87.8 160.9 87.2 160.2 86.5 159.5 C 84.9 160.6 83 161.3 81 161.5 C 77.2 160 73.3 158.7 69.5 157.5 C 70.8 157.1 72.1 156.8 73.5 156.5 C 70.2 155.5 66.9 155.2 63.5 155.5 C 63.5 152.8 62.9 150.3 61.5 148 C 65.3 147.1 69 145.9 72.5 144.5 C 74 144.6 75.3 144.2 76.5 143.5 Z"/></g>
<g><path style="opacity: 1" fill="#e7b995" d="M 71.5 151.5 C 73.8 151.7 76.1 152.1 78.5 152.5 C 77.1 153.5 75.6 154.1 74 154.5 C 72.3 154.3 71.4 153.3 71.5 151.5 Z"/></g>
<g><path style="opacity: 1" fill="#ebaf87" d="M 88.5 139.5 C 89.8 140.9 91.4 141.6 93.5 141.5 C 92.4 142.3 91.1 142.8 89.5 143 C 94.1 143.6 94.4 144.7 90.5 146.5 C 97 148 97 149.5 90.5 151 C 93.8 152 97.2 153 100.5 154 C 98.7 155.1 96.7 155.6 94.5 155.5 C 94.7 156.8 94.4 157.8 93.5 158.5 C 93.2 158.5 92.8 158.5 92.5 158.5 C 90.8 157 88.8 155.7 86.5 154.5 C 85 155.1 83.7 155.9 82.5 157 C 83.7 158.2 83.7 159.3 82.5 160.5 C 79.8 159.2 77.2 157.8 74.5 156.5 C 78.4 155.8 82 154.6 85.5 153 C 84.7 152 84.3 150.8 84.5 149.5 C 82.9 149.7 81.4 149.4 80 148.5 C 79.7 149.3 79.2 150 78.5 150.5 C 75.9 149.4 73.2 149.3 70.5 150 C 67 153.4 65 152.6 64.5 147.5 C 66.2 147.6 67.9 148 69.5 148.5 C 73.3 146.9 77.1 145.6 81 144.5 C 83.1 145.6 85.2 145.8 87.5 145 C 84 143.7 80.3 143.2 76.5 143.5 C 76.5 143.2 76.5 142.8 76.5 142.5 C 77.3 141.5 78.3 140.7 79.5 140 C 82.5 139.5 85.5 139.3 88.5 139.5 Z"/></g>
<g><path style="opacity: 1" fill="#f5e6d1" d="M 143.5 146.5 C 143.7 147.8 143.4 148.8 142.5 149.5 C 140.8 149.5 139.2 149.5 137.5 149.5 C 137.3 148.3 137.6 147.3 138.5 146.5 C 140.1 147.5 141.8 147.5 143.5 146.5 Z"/></g>
<g><path style="opacity: 1" fill="#f6eee1" d="M 109.5 145.5 C 112.5 145.4 114 146.7 114 149.5 C 113.3 150.5 112.4 150.6 111.5 150 C 110.4 148.7 109.8 147.2 109.5 145.5 Z"/></g>
<g><path style="opacity: 1" fill="#eddabc" d="M 136.5 140.5 C 136.8 140.5 137.2 140.5 137.5 140.5 C 138.5 141.5 139.5 142.5 140.5 143.5 C 141.3 142.4 142.3 141.7 143.5 141.5 C 144.8 142.5 144.8 143.5 143.5 144.5 C 138.5 144.8 133.5 144.5 128.5 143.5 C 127.2 142 127.7 141.3 130 141.5 C 131.4 141.8 132.5 142.5 133.5 143.5 C 134.1 142 135.1 141 136.5 140.5 Z"/></g>
<g><path style="opacity: 1" fill="#e69d7c" d="M 143.5 141.5 C 142.3 141.7 141.3 142.4 140.5 143.5 C 139.5 142.5 138.5 141.5 137.5 140.5 C 137.2 138.9 137.6 137.6 138.5 136.5 C 139.4 136.1 140.5 136.1 142 136.5 C 142.4 138.2 142.9 139.9 143.5 141.5 Z"/></g>
<g><path style="opacity: 1" fill="#e3a480" d="M 136.5 140.5 C 135.1 141 134.1 142 133.5 143.5 C 132.5 142.5 131.4 141.8 130 141.5 C 127.7 141.3 127.2 142 128.5 143.5 C 133.5 144.5 138.5 144.8 143.5 144.5 C 143.5 145.2 143.5 145.8 143.5 146.5 C 141.8 147.5 140.1 147.5 138.5 146.5 C 137.6 147.3 137.3 148.3 137.5 149.5 C 139.2 149.5 140.8 149.5 142.5 149.5 C 141.8 150.7 141.4 152 141.5 153.5 C 140.8 154.2 140.2 154.8 139.5 155.5 C 138.7 154.7 137.7 154.2 136.5 154 C 137.4 153.3 138 152.5 138.5 151.5 C 136.2 150.6 133.9 149.9 131.5 149.5 C 130.4 149.8 129.5 150.5 129 151.5 C 128.3 150.9 127.4 150.4 126.5 150 C 128.7 147.6 131.2 147.1 134 148.5 C 135.6 148 135.8 147.4 134.5 146.5 C 131.4 145.8 128.2 145.1 125 144.5 C 124.2 144.6 123.7 144.9 123.5 145.5 C 121.5 145.8 120.2 145.2 119.5 143.5 C 119.4 142.6 119.7 142 120.5 141.5 C 121.7 141.8 121.7 142.3 120.5 143 C 122.7 143.8 124.7 143.5 126.5 142 C 125.6 141.5 124.6 141.4 123.5 141.5 C 123.5 140.5 123.5 139.5 123.5 138.5 C 128 139 132.3 139.6 136.5 140.5 Z"/></g>
<g><path style="opacity: 1" fill="#e78857" d="M 64.5 133.5 C 70.6 135.6 76.9 136.9 83.5 137.5 C 85.2 138.2 86.8 138.8 88.5 139.5 C 85.5 139.3 82.5 139.5 79.5 140 C 78.3 140.7 77.3 141.5 76.5 142.5 C 71 140.8 65.3 139.8 59.5 139.5 C 59.7 138.2 59.3 137 58.5 136 C 59.5 135.5 60.5 135.7 61.5 136.5 C 63.2 136.1 64.2 135.1 64.5 133.5 Z"/></g>
<g><path style="opacity: 1" fill="#ecc3a4" d="M 65.5 136.5 C 68.5 135 71.2 135.6 73.5 138.5 C 71.2 139.8 68.8 139.8 66.5 138.5 C 68 137.1 67.6 136.4 65.5 136.5 Z"/></g>
<g><path style="opacity: 1" fill="#d24a2c" d="M 107.5 130.5 C 110.5 130.2 111.8 131.5 111.5 134.5 C 109.5 133.8 107.5 133.2 105.5 132.5 C 105.8 131.5 106.5 130.8 107.5 130.5 Z"/></g>
<g><path style="opacity: 1" fill="#df7d59" d="M 65.5 131.5 C 63.4 131.2 61.4 131.5 59.5 132.5 C 59.6 133.1 60 133.4 60.5 133.5 C 59.1 134.5 57.8 134.2 56.5 132.5 C 57.7 131.4 58.6 130.1 59 128.5 C 60 129.8 61 129.8 62 128.5 C 62.3 129.3 62.8 130 63.5 130.5 C 64.9 129 65.6 129.4 65.5 131.5 Z"/></g>
<g><path style="opacity: 1" fill="#cc785c" d="M 129.5 180.5 C 131.2 181.2 132.8 181.8 134.5 182.5 C 134.9 185.2 133.9 186.3 131.5 186 C 134 183.8 133.3 183 129.5 183.5 C 129.5 182.5 129.5 181.5 129.5 180.5 Z"/></g>
<g><path style="opacity: 1" fill="#e9b68d" d="M 75.5 185.5 C 74.2 187 72.6 187.6 70.5 187.5 C 69.8 186.5 69.2 185.5 68.5 184.5 C 68.8 183.5 69.5 182.9 70.5 182.5 C 70.6 183.7 70.9 185 71.5 186.5 C 72.7 186.2 72.7 185.7 71.5 185 C 73.1 184.2 74.4 184.4 75.5 185.5 Z"/></g>
<g><path style="opacity: 1" fill="#d56241" d="M 69.5 179.5 C 76.8 184.1 84.8 187.1 93.5 188.5 C 93.1 189.2 92.8 189.8 92.5 190.5 C 92.8 192 92.4 193.3 91.5 194.5 C 89.2 193.7 87.4 192.4 86 190.5 C 85.5 191.1 85.4 191.8 85.5 192.5 C 84.6 191.8 84.3 190.8 84.5 189.5 C 83.2 189.7 82 189.3 81 188.5 C 80.7 189.5 80.3 190.5 80 191.5 C 79.3 189.9 79.4 188.4 80.5 187 C 78.9 186.9 77.7 187.7 77 189.5 C 76.5 188.5 76.7 187.5 77.5 186.5 C 77 185.7 76.4 185.4 75.5 185.5 C 74.4 184.4 73.1 184.2 71.5 185 C 72.7 185.7 72.7 186.2 71.5 186.5 C 70.9 185 70.6 183.7 70.5 182.5 C 69.5 182.9 68.8 183.5 68.5 184.5 C 65.8 185.2 64.5 183.8 64.5 180.5 C 66.2 180.4 67.9 180 69.5 179.5 Z"/></g>
<g><path style="opacity: 1" fill="#d04c2e" d="M 75.5 185.5 C 75.8 187.4 75.1 188.7 73.5 189.5 C 72.5 188.8 71.5 188.2 70.5 187.5 C 72.6 187.6 74.2 187 75.5 185.5 Z"/></g>
<g><path style="opacity: 1" fill="#d7765a" d="M 128.5 187.5 C 127.5 188.8 126.2 189.5 124.5 189.5 C 124.6 189.1 124.4 188.7 124 188.5 C 123.7 189.2 123.3 189.8 123 190.5 C 121.9 188.7 121.4 186.7 121.5 184.5 C 122.5 184.5 123.5 184.5 124.5 184.5 C 124.3 186.1 124.8 187.4 126 188.5 C 126.2 186.7 126.7 185.1 127.5 183.5 C 130.6 184.7 130.9 186.1 128.5 187.5 Z"/></g>
<g><path style="opacity: 1" fill="#d26741" d="M 120.5 190.5 C 119.5 190.8 118.8 191.5 118.5 192.5 C 117.2 191 117.2 189.3 118.5 187.5 C 120.4 188.3 121 189.3 120.5 190.5 Z"/></g>
<g><path style="opacity: 1" fill="#efdac5" d="M 75.5 185.5 C 76.4 185.4 77 185.7 77.5 186.5 C 76.7 187.5 76.5 188.5 77 189.5 C 77.7 187.7 78.9 186.9 80.5 187 C 79.4 188.4 79.3 189.9 80 191.5 C 80.3 190.5 80.7 189.5 81 188.5 C 82 189.3 83.2 189.7 84.5 189.5 C 84.3 190.8 84.6 191.8 85.5 192.5 C 85.4 193 85.1 193.4 84.5 193.5 C 83.8 192.5 83.2 191.5 82.5 190.5 C 80.5 192.3 78.1 192.8 75.5 192 C 74.2 191.6 73.6 190.8 73.5 189.5 C 75.1 188.7 75.8 187.4 75.5 185.5 Z"/></g>
<g><path style="opacity: 1" fill="#d17856" d="M 115.5 192.5 C 113.4 191.1 112.4 191.8 112.5 194.5 C 110 193.5 107.5 193.5 105 194.5 C 104.1 194.1 103.4 193.4 103 192.5 C 102.8 193.7 102.3 194.7 101.5 195.5 C 101.5 193.5 101.5 191.5 101.5 189.5 C 102.5 189.5 103.5 189.5 104.5 189.5 C 105 193.3 106 193.3 107.5 189.5 C 109.3 193.1 110.3 193.1 110.5 189.5 C 111.8 189.3 113 189.7 114 190.5 C 114.3 189.5 114.7 188.5 115 187.5 C 116.7 189.1 116.8 190.8 115.5 192.5 Z"/></g>
</svg>
