<?xml version="1.0" encoding="UTF-8"?>
<!DOCTYPE svg PUBLIC "-//W3C//DTD SVG 1.1//EN" "http://www.w3.org/Graphics/SVG/1.1/DTD/svg11.dtd">
<svg xmlns="http://www.w3.org/2000/svg" version="1.1" width="150px" height="213px" style="shape-rendering:geometricPrecision; text-rendering:geometricPrecision; image-rendering:optimizeQuality; fill-rule:evenodd; clip-rule:evenodd" xmlns:xlink="http://www.w3.org/1999/xlink">
<g><path style="opacity:1" fill="#f0ecea" d="M 4.5,95.5 C 4.81,92.2869 4.47667,89.2869 3.5,86.5C 2.63033,77.8463 2.46367,69.1797 3,60.5C 15.3861,50.1094 24.7195,37.4428 31,22.5C 46.988,19.1713 61.6547,12.838 75,3.5C 87.7216,13.7746 102.222,20.1079 118.5,22.5C 123.994,37.3367 132.994,49.6701 145.5,59.5C 147.896,89.9228 141.396,118.256 126,144.5C 109.177,157.576 91.8438,169.909 74,181.5C 57.0674,170.237 40.4007,158.571 24,146.5C 14.6428,130.595 8.1428,113.595 4.5,95.5 Z"/></g>
<g><path style="opacity:0.647" fill="#b87d60" d="M 63.5,6.5 C 62.9688,8.62373 61.6355,10.1237 59.5,11C 56.7163,11.8917 54.0496,13.0584 51.5,14.5C 50.8933,14.3764 50.56,14.0431 50.5,13.5C 55.1005,11.7379 59.4338,9.40458 63.5,6.5 Z"/></g>
<g><path style="opacity:1" fill="#f78902" d="M 73.5,14.5 C 73.5,21.8333 73.5,29.1667 73.5,36.5C 68.7132,35.9699 64.3798,37.1366 60.5,40C 56.0616,44.4392 51.0616,48.1059 45.5,51C 37.6404,56.8862 33.6404,64.7196 33.5,74.5C 32.8333,75.1667 32.1667,75.8333 31.5,76.5C 29.6418,78.8831 28.3084,81.5498 27.5,84.5C 25.9942,87.356 25.3275,90.5226 25.5,94C 25.5039,96.3608 25.8373,98.5274 26.5,100.5C 27.1302,102.75 28.1302,104.75 29.5,106.5C 29.886,108.937 31.0527,110.937 33,112.5C 33.2415,116.43 34.0749,120.097 35.5,123.5C 35.7497,125.674 36.7497,127.341 38.5,128.5C 38.427,130.027 39.0937,131.027 40.5,131.5C 41.8333,134.833 44.1667,137.167 47.5,138.5C 48.5137,139.674 49.847,140.34 51.5,140.5C 56.5628,148.7 63.8961,153.367 73.5,154.5C 73.5,160.5 73.5,166.5 73.5,172.5C 58.4606,162.22 43.6273,151.553 29,140.5C 15.8713,116.857 9.87132,91.5236 11,64.5C 22.6602,54.8546 31.1602,43.0212 36.5,29C 41.5943,28.4765 46.5943,27.4765 51.5,26C 59.2969,22.936 66.6303,19.1026 73.5,14.5 Z"/></g>
<g><path style="opacity:0.347" fill="#c3927b" d="M 36.5,17.5 C 34.6948,19.1969 32.3615,20.0302 29.5,20C 28.7304,23.7088 27.0638,26.8754 24.5,29.5C 25.4354,25.6944 26.7687,22.0277 28.5,18.5C 31.0841,17.6072 33.7508,17.2739 36.5,17.5 Z"/></g>
<g><path style="opacity:1" fill="#19b434" d="M 75.5,14.5 C 77.0618,14.7329 78.3951,15.3995 79.5,16.5C 89.4214,24.2035 100.755,28.7035 113.5,30C 118.709,43.9105 127.209,55.4105 139,64.5C 140.156,91.3347 134.156,116.335 121,139.5C 106.246,151.121 91.0797,162.121 75.5,172.5C 75.5,166.5 75.5,160.5 75.5,154.5C 79.4749,155.142 82.8082,154.142 85.5,151.5C 91.6572,149.752 96.3238,146.085 99.5,140.5C 100.492,140.672 101.158,140.338 101.5,139.5C 111.811,134.489 116.811,126.156 116.5,114.5C 117.338,114.158 117.672,113.492 117.5,112.5C 119.669,110.66 121.002,108.326 121.5,105.5C 124.161,101.69 125.161,97.3563 124.5,92.5C 125.262,86.0405 123.262,80.7072 118.5,76.5C 117.903,73.0588 117.237,69.7254 116.5,66.5C 113.949,60.5721 110.282,55.4054 105.5,51C 99.601,47.7694 94.2676,43.7694 89.5,39C 85.9855,37.4383 82.3189,36.605 78.5,36.5C 77.791,35.596 76.791,35.2627 75.5,35.5C 75.5,28.5 75.5,21.5 75.5,14.5 Z"/></g>
<g><path style="opacity:0.286" fill="#c69984" d="M 118.5,17.5 C 121.719,19.937 123.386,23.2704 123.5,27.5C 121.458,24.3858 119.791,21.0524 118.5,17.5 Z"/></g>
<g><path style="opacity:0.971" fill="#a04c28" d="M 72.5,-0.5 C 73.8333,-0.5 75.1667,-0.5 76.5,-0.5C 77.7574,0.818144 79.0907,2.15148 80.5,3.5C 85.1602,5.49474 89.4935,7.99474 93.5,11C 98.0274,12.2129 102.361,13.8796 106.5,16C 110.44,17.0153 114.44,17.5153 118.5,17.5C 119.791,21.0524 121.458,24.3858 123.5,27.5C 126.278,30.7214 128.278,34.3881 129.5,38.5C 130.08,40.7488 131.413,42.4154 133.5,43.5C 138.167,47.5 142.5,51.8333 146.5,56.5C 146.783,57.2891 147.283,57.9558 148,58.5C 148.5,67.4938 148.666,76.4938 148.5,85.5C 147.997,91.5209 147.331,97.5209 146.5,103.5C 145.503,103.47 144.836,103.97 144.5,105C 143.639,108.137 142.973,111.303 142.5,114.5C 142.5,114.833 142.5,115.167 142.5,115.5C 139.946,120.481 137.946,125.814 136.5,131.5C 134.088,134.368 132.421,137.701 131.5,141.5C 129.976,146.359 126.976,150.025 122.5,152.5C 106.366,163.975 90.1997,175.308 74,186.5C 56.8072,173.683 39.3072,161.183 21.5,149C 20.3606,147.22 19.3606,145.386 18.5,143.5C 17.558,139.935 15.8913,136.935 13.5,134.5C 12.2371,129.011 10.2371,124.011 7.5,119.5C 7.5,119.167 7.5,118.833 7.5,118.5C 7.02725,115.303 6.36058,112.137 5.5,109C 5.16389,107.97 4.49722,107.47 3.5,107.5C 3.5,106.833 3.5,106.167 3.5,105.5C 3.47089,102.193 3.80423,98.8592 4.5,95.5C 8.1428,113.595 14.6428,130.595 24,146.5C 40.4007,158.571 57.0674,170.237 74,181.5C 91.8438,169.909 109.177,157.576 126,144.5C 141.396,118.256 147.896,89.9228 145.5,59.5C 132.994,49.6701 123.994,37.3367 118.5,22.5C 102.222,20.1079 87.7216,13.7746 75,3.5C 61.6547,12.838 46.988,19.1713 31,22.5C 24.7195,37.4428 15.3861,50.1094 3,60.5C 2.46367,69.1797 2.63033,77.8463 3.5,86.5C 3.66331,88.8568 3.49665,91.1902 3,93.5C 2.62947,89.9671 1.46281,86.9671 -0.5,84.5C -0.5,75.5 -0.5,66.5 -0.5,57.5C 0.166667,57.5 0.833333,57.5 1.5,57.5C 6.8118,55.2155 11.1451,51.2155 14.5,45.5C 17.8365,40.1586 21.1698,34.8252 24.5,29.5C 27.0638,26.8754 28.7304,23.7088 29.5,20C 32.3615,20.0302 34.6948,19.1969 36.5,17.5C 41.3807,16.7601 46.0474,15.4267 50.5,13.5C 50.56,14.0431 50.8933,14.3764 51.5,14.5C 54.0496,13.0584 56.7163,11.8917 59.5,11C 61.6355,10.1237 62.9688,8.62373 63.5,6.5C 67.1212,4.86874 70.1212,2.5354 72.5,-0.5 Z"/></g>
<g><path style="opacity:1" fill="#8bccae" d="M 75.5,14.5 C 75.5,21.5 75.5,28.5 75.5,35.5C 76.791,35.2627 77.791,35.596 78.5,36.5C 76.8333,36.5 75.1667,36.5 73.5,36.5C 73.5,29.1667 73.5,21.8333 73.5,14.5C 74.1667,13.1667 74.8333,13.1667 75.5,14.5 Z"/></g>
<g><path style="opacity:1" fill="#61c9f7" d="M 115.5,70.5 C 115.785,72.288 115.452,73.9547 114.5,75.5C 109.558,77.4684 104.891,79.8017 100.5,82.5C 98.049,80.8774 96.049,78.7107 94.5,76C 93.1667,75.6667 91.8333,75.3333 90.5,75C 88.9458,73.108 87.1124,71.608 85,70.5C 84.0497,71.0223 83.2164,71.689 82.5,72.5C 81.4793,71.0986 80.4793,69.7653 79.5,68.5C 78.7381,64.7315 77.0714,61.3981 74.5,58.5C 71.8333,63.1667 69.1667,67.8333 66.5,72.5C 65.4095,70.9852 64.0761,70.1519 62.5,70C 60.8767,72.0795 59.3767,74.2462 58,76.5C 56.9505,75.4829 55.7839,75.3162 54.5,76C 52.5981,77.7297 50.9314,79.563 49.5,81.5C 44.0394,79.7083 39.0394,77.0416 34.5,73.5C 35.6755,65.3148 39.3422,58.4815 45.5,53C 52.283,49.6219 58.283,45.2886 63.5,40C 72.382,36.4034 81.0486,36.7367 89.5,41C 94.2676,45.7694 99.601,49.7694 105.5,53C 110.541,57.9229 113.875,63.7562 115.5,70.5 Z"/></g>
<g><path style="opacity:1" fill="#273974" d="M 73.5,36.5 C 75.1667,36.5 76.8333,36.5 78.5,36.5C 82.3189,36.605 85.9855,37.4383 89.5,39C 94.2676,43.7694 99.601,47.7694 105.5,51C 110.282,55.4054 113.949,60.5721 116.5,66.5C 116.768,68.099 116.434,69.4324 115.5,70.5C 113.875,63.7562 110.541,57.9229 105.5,53C 99.601,49.7694 94.2676,45.7694 89.5,41C 81.0486,36.7367 72.382,36.4034 63.5,40C 58.283,45.2886 52.283,49.6219 45.5,53C 39.3422,58.4815 35.6755,65.3148 34.5,73.5C 34.5,74.1667 34.1667,74.5 33.5,74.5C 33.6404,64.7196 37.6404,56.8862 45.5,51C 51.0616,48.1059 56.0616,44.4392 60.5,40C 64.3798,37.1366 68.7132,35.9699 73.5,36.5 Z"/></g>
<g><path style="opacity:0.247" fill="#ca9f88" d="M 129.5,38.5 C 131.587,39.5846 132.92,41.2512 133.5,43.5C 131.413,42.4154 130.08,40.7488 129.5,38.5 Z"/></g>
<g><path style="opacity:0.749" fill="#c38d72" d="M 14.5,45.5 C 11.1451,51.2155 6.8118,55.2155 1.5,57.5C 5.87953,53.45 10.2129,49.45 14.5,45.5 Z"/></g>
<g><path style="opacity:0.615" fill="#bd856a" d="M 146.5,56.5 C 147.609,56.5569 148.609,56.8902 149.5,57.5C 149.5,66.8333 149.5,76.1667 149.5,85.5C 149.167,85.5 148.833,85.5 148.5,85.5C 148.666,76.4938 148.5,67.4938 148,58.5C 147.283,57.9558 146.783,57.2891 146.5,56.5 Z"/></g>
<g><path style="opacity:1" fill="#295d9a" d="M 89.5,59.5 C 90.3764,59.3691 91.0431,59.7025 91.5,60.5C 90.6493,62.8816 89.316,64.8816 87.5,66.5C 87.1667,66.3333 86.8333,66.1667 86.5,66C 87.914,64.0065 88.914,61.8398 89.5,59.5 Z"/></g>
<g><path style="opacity:1" fill="#31619d" d="M 57.5,59.5 C 58.4959,59.4142 59.3292,59.7476 60,60.5C 61.5899,62.6498 62.2566,64.9832 62,67.5C 60.2226,64.9406 58.7226,62.2739 57.5,59.5 Z"/></g>
<g><path style="opacity:1" fill="#62ccf9" d="M 79.5,68.5 C 79.6941,71.3297 80.3608,73.9963 81.5,76.5C 80.2209,77.968 78.5542,78.6347 76.5,78.5C 74.6431,77.2463 72.6431,77.2463 70.5,78.5C 69.0256,77.5637 68.0256,76.2303 67.5,74.5C 69.3287,70.1718 71.662,66.1718 74.5,62.5C 76.1706,64.6272 77.8372,66.6272 79.5,68.5 Z"/></g>
<g><path style="opacity:1" fill="#265c9b" d="M 46.5,67.5 C 47.7927,66.3552 48.9593,66.6885 50,68.5C 51.2893,70.0548 51.956,71.7215 52,73.5C 49.932,71.6038 48.0987,69.6038 46.5,67.5 Z"/></g>
<g><path style="opacity:1" fill="#2c5b9a" d="M 79.5,68.5 C 80.4793,69.7653 81.4793,71.0986 82.5,72.5C 83.2164,71.689 84.0497,71.0223 85,70.5C 87.1124,71.608 88.9458,73.108 90.5,75C 91.8333,75.3333 93.1667,75.6667 94.5,76C 96.049,78.7107 98.049,80.8774 100.5,82.5C 99.7095,83.4013 98.7095,84.0679 97.5,84.5C 97.0539,81.5417 95.5539,79.2084 93,77.5C 88.2844,79.6223 86.1177,82.9556 86.5,87.5C 84.1667,85.8333 82.1667,83.8333 80.5,81.5C 84.1879,82.2356 87.1879,80.9023 89.5,77.5C 88.396,75.6115 87.0627,73.9448 85.5,72.5C 84.4787,74.188 83.1454,75.5213 81.5,76.5C 80.3608,73.9963 79.6941,71.3297 79.5,68.5 Z"/></g>
<g><path style="opacity:1" fill="#2c5a98" d="M 79.5,68.5 C 77.8372,66.6272 76.1706,64.6272 74.5,62.5C 71.662,66.1718 69.3287,70.1718 67.5,74.5C 68.0256,76.2303 69.0256,77.5637 70.5,78.5C 72.6431,77.2463 74.6431,77.2463 76.5,78.5C 75.1266,78.3433 73.7932,78.51 72.5,79C 69.9528,81.054 67.2861,82.8874 64.5,84.5C 61.5624,82.066 58.7291,79.3993 56,76.5C 53.8981,78.0948 52.3981,80.0948 51.5,82.5C 49.1625,84.0107 48.4958,83.6773 49.5,81.5C 50.9314,79.563 52.5981,77.7297 54.5,76C 55.7839,75.3162 56.9505,75.4829 58,76.5C 59.3767,74.2462 60.8767,72.0795 62.5,70C 64.0761,70.1519 65.4095,70.9852 66.5,72.5C 69.1667,67.8333 71.8333,63.1667 74.5,58.5C 77.0714,61.3981 78.7381,64.7315 79.5,68.5 Z"/></g>
<g><path style="opacity:1" fill="#62cef6" d="M 62.5,72.5 C 63.4959,72.4142 64.3292,72.7476 65,73.5C 65.9143,75.6641 67.081,77.6641 68.5,79.5C 67.8333,80.8333 66.8333,81.8333 65.5,82.5C 63.5,80.8333 61.5,79.1667 59.5,77.5C 60.7629,75.9713 61.7629,74.3046 62.5,72.5 Z"/></g>
<g><path style="opacity:1" fill="#5fc8f5" d="M 33.5,77.5 C 41.3475,81.8202 49.3475,85.9868 57.5,90C 58.3366,91.0113 58.67,92.1779 58.5,93.5C 53.4204,94.5637 48.587,94.5637 44,93.5C 41.9062,89.8246 40.0729,89.8246 38.5,93.5C 34.8927,94.4892 31.226,94.8226 27.5,94.5C 27.5,92.5 27.5,90.5 27.5,88.5C 27.5,88.1667 27.5,87.8333 27.5,87.5C 28.5727,83.622 30.5727,80.2886 33.5,77.5 Z"/></g>
<g><path style="opacity:1" fill="#61cbf6" d="M 80.5,81.5 C 81.038,79.8828 81.3713,78.2161 81.5,76.5C 83.1454,75.5213 84.4787,74.188 85.5,72.5C 87.0627,73.9448 88.396,75.6115 89.5,77.5C 87.1879,80.9023 84.1879,82.2356 80.5,81.5 Z"/></g>
<g><path style="opacity:1" fill="#62ccf9" d="M 117.5,77.5 C 121.334,81.6675 123,86.6675 122.5,92.5C 119.833,92.5 117.167,92.5 114.5,92.5C 114.62,89.7952 113.62,89.1285 111.5,90.5C 110.522,90.0233 109.689,89.3567 109,88.5C 107.47,89.9202 105.637,90.9202 103.5,91.5C 105.167,93.1667 104.833,94.1667 102.5,94.5C 98.8822,95.3464 95.2155,95.6797 91.5,95.5C 91.6716,94.5084 91.3382,93.8417 90.5,93.5C 90.33,92.1779 90.6634,91.0113 91.5,90C 100.067,85.5494 108.733,81.3828 117.5,77.5 Z"/></g>
<g><path style="opacity:1" fill="#1d3a71" d="M 117.5,77.5 C 117.5,76.8333 117.833,76.5 118.5,76.5C 123.262,80.7072 125.262,86.0405 124.5,92.5C 123.833,92.5 123.167,92.5 122.5,92.5C 123,86.6675 121.334,81.6675 117.5,77.5 Z"/></g>
<g><path style="opacity:1" fill="#63cef8" d="M 97.5,84.5 C 94.3199,85.326 91.3199,86.6593 88.5,88.5C 87.8165,88.1373 87.1499,87.8039 86.5,87.5C 86.1177,82.9556 88.2844,79.6223 93,77.5C 95.5539,79.2084 97.0539,81.5417 97.5,84.5 Z"/></g>
<g><path style="opacity:1" fill="#342a6e" d="M 31.5,76.5 C 32.4916,76.3284 33.1583,76.6618 33.5,77.5C 30.5727,80.2886 28.5727,83.622 27.5,87.5C 27.5,86.5 27.5,85.5 27.5,84.5C 28.3084,81.5498 29.6418,78.8831 31.5,76.5 Z"/></g>
<g><path style="opacity:1" fill="#5f76a5" d="M 116.5,66.5 C 117.237,69.7254 117.903,73.0588 118.5,76.5C 117.833,76.5 117.5,76.8333 117.5,77.5C 108.733,81.3828 100.067,85.5494 91.5,90C 90.6634,91.0113 90.33,92.1779 90.5,93.5C 88.8795,91.7359 87.5462,89.7359 86.5,87.5C 87.1499,87.8039 87.8165,88.1373 88.5,88.5C 91.3199,86.6593 94.3199,85.326 97.5,84.5C 98.7095,84.0679 99.7095,83.4013 100.5,82.5C 104.891,79.8017 109.558,77.4684 114.5,75.5C 115.452,73.9547 115.785,72.288 115.5,70.5C 116.434,69.4324 116.768,68.099 116.5,66.5 Z"/></g>
<g><path style="opacity:1" fill="#677dab" d="M 34.5,73.5 C 39.0394,77.0416 44.0394,79.7083 49.5,81.5C 48.4958,83.6773 49.1625,84.0107 51.5,82.5C 53.5577,85.2131 56.2244,87.2131 59.5,88.5C 61.1856,87.1431 62.8523,85.8098 64.5,84.5C 67.2861,82.8874 69.9528,81.054 72.5,79C 73.7932,78.51 75.1266,78.3433 76.5,78.5C 78.5542,78.6347 80.2209,77.968 81.5,76.5C 81.3713,78.2161 81.038,79.8828 80.5,81.5C 79.7611,81.369 79.0944,81.5357 78.5,82C 81.4468,84.4356 83.7801,87.2689 85.5,90.5C 82.1044,86.9374 78.2711,83.9374 74,81.5C 67.1694,86.157 62.0028,92.157 58.5,99.5C 59.0084,96.1485 60.3418,93.1485 62.5,90.5C 61.9984,89.479 61.3317,89.3123 60.5,90C 59.9152,91.3024 59.2485,92.469 58.5,93.5C 58.67,92.1779 58.3366,91.0113 57.5,90C 49.3475,85.9868 41.3475,81.8202 33.5,77.5C 33.1583,76.6618 32.4916,76.3284 31.5,76.5C 32.1667,75.8333 32.8333,75.1667 33.5,74.5C 34.1667,74.5 34.5,74.1667 34.5,73.5 Z"/></g>
<g><path style="opacity:1" fill="#62cdf9" d="M 64.5,84.5 C 62.8523,85.8098 61.1856,87.1431 59.5,88.5C 56.2244,87.2131 53.5577,85.2131 51.5,82.5C 52.3981,80.0948 53.8981,78.0948 56,76.5C 58.7291,79.3993 61.5624,82.066 64.5,84.5 Z"/></g>
<g><path style="opacity:1" fill="#714139" d="M 27.5,84.5 C 27.5,85.5 27.5,86.5 27.5,87.5C 27.5,87.8333 27.5,88.1667 27.5,88.5C 26.5318,90.6074 26.1984,92.9407 26.5,95.5C 26.5,96.1667 26.5,96.8333 26.5,97.5C 26.5,98.5 26.5,99.5 26.5,100.5C 25.8373,98.5274 25.5039,96.3608 25.5,94C 25.3275,90.5226 25.9942,87.356 27.5,84.5 Z"/></g>
<g><path style="opacity:1" fill="#61c9f7" d="M 85.5,90.5 C 89.5208,94.2129 91.6874,98.8796 92,104.5C 92.4652,105.931 93.2986,107.097 94.5,108C 101.711,109.516 108.711,111.349 115.5,113.5C 115.028,124.446 110.361,133.112 101.5,139.5C 101.158,140.338 100.492,140.672 99.5,140.5C 95.2657,144.629 90.5991,148.296 85.5,151.5C 77.9863,153.225 70.653,152.725 63.5,150C 59.6061,146.596 55.6061,143.429 51.5,140.5C 49.847,140.34 48.5137,139.674 47.5,138.5C 45.5,135.833 43.1667,133.5 40.5,131.5C 39.0937,131.027 38.427,130.027 38.5,128.5C 38.7409,125.966 37.7409,124.3 35.5,123.5C 35.7261,120.751 35.3928,118.084 34.5,115.5C 35.5487,113.784 36.882,112.451 38.5,111.5C 40.8008,110.94 43.1341,110.44 45.5,110C 48.3245,107.387 51.6578,105.721 55.5,105C 56.8688,103.281 57.8688,101.448 58.5,99.5C 62.0028,92.157 67.1694,86.157 74,81.5C 78.2711,83.9374 82.1044,86.9374 85.5,90.5 Z"/></g>
<g><path style="opacity:0.843" fill="#b97a5c" d="M -0.5,84.5 C 1.46281,86.9671 2.62947,89.9671 3,93.5C 3.49665,91.1902 3.66331,88.8568 3.5,86.5C 4.47667,89.2869 4.81,92.2869 4.5,95.5C 3.80423,98.8592 3.47089,102.193 3.5,105.5C 2.80502,100.441 1.47168,95.7742 -0.5,91.5C -0.5,89.1667 -0.5,86.8333 -0.5,84.5 Z"/></g>
<g><path style="opacity:1" fill="#babace" d="M 26.5,95.5 C 39.8333,96.1667 39.8333,96.8333 26.5,97.5C 26.5,96.8333 26.5,96.1667 26.5,95.5 Z"/></g>
<g><path style="opacity:1" fill="#48649d" d="M 27.5,88.5 C 27.5,90.5 27.5,92.5 27.5,94.5C 31.226,94.8226 34.8927,94.4892 38.5,93.5C 40.0729,89.8246 41.9062,89.8246 44,93.5C 48.587,94.5637 53.4204,94.5637 58.5,93.5C 55.2994,95.2603 51.6327,96.0936 47.5,96C 50.6382,97.2444 53.9716,97.911 57.5,98C 56.3081,99.9124 55.3081,101.912 54.5,104C 52.5643,104.813 50.5643,105.313 48.5,105.5C 49.937,104.275 51.6036,103.275 53.5,102.5C 54.4287,101.311 54.762,99.9778 54.5,98.5C 51.8333,98.5 49.1667,98.5 46.5,98.5C 46.5,99.8333 46.5,101.167 46.5,102.5C 44.5082,102.328 42.8415,102.995 41.5,104.5C 40.6143,103.675 40.281,102.675 40.5,101.5C 39.0222,101.762 37.6888,101.429 36.5,100.5C 36.7093,99.914 37.0426,99.414 37.5,99C 34.5184,98.502 31.5184,98.3354 28.5,98.5C 28.5751,101.206 28.9084,103.873 29.5,106.5C 28.1302,104.75 27.1302,102.75 26.5,100.5C 26.5,99.5 26.5,98.5 26.5,97.5C 39.8333,96.8333 39.8333,96.1667 26.5,95.5C 26.1984,92.9407 26.5318,90.6074 27.5,88.5 Z"/></g>
<g><path style="opacity:1" fill="#e9e7ed" d="M 40.5,92.5 C 46.3798,94.6338 46.8798,97.6338 42,101.5C 40.7949,100.929 39.6283,100.262 38.5,99.5C 39.1702,97.1369 39.8368,94.8036 40.5,92.5 Z"/></g>
<g><path style="opacity:1" fill="#62cdf9" d="M 121.5,105.5 C 120.002,108.331 117.669,109.998 114.5,110.5C 108.78,107.897 102.78,105.897 96.5,104.5C 95.0082,102.792 94.6749,101.125 95.5,99.5C 98.4475,99.7771 101.281,99.4438 104,98.5C 104.249,99.624 104.749,100.624 105.5,101.5C 108.522,101.582 111.522,100.915 114.5,99.5C 114.5,98.5 114.5,97.5 114.5,96.5C 117.167,96.5 119.833,96.5 122.5,96.5C 122.492,99.5448 122.159,102.545 121.5,105.5 Z"/></g>
<g><path style="opacity:1" fill="#61ccf8" d="M 48.5,105.5 C 43.9523,106.115 39.9523,107.781 36.5,110.5C 35.0222,110.762 33.6888,110.429 32.5,109.5C 31.8118,108.145 30.8118,107.145 29.5,106.5C 28.9084,103.873 28.5751,101.206 28.5,98.5C 31.5184,98.3354 34.5184,98.502 37.5,99C 37.0426,99.414 36.7093,99.914 36.5,100.5C 37.6888,101.429 39.0222,101.762 40.5,101.5C 40.281,102.675 40.6143,103.675 41.5,104.5C 42.8415,102.995 44.5082,102.328 46.5,102.5C 46.5,101.167 46.5,99.8333 46.5,98.5C 49.1667,98.5 51.8333,98.5 54.5,98.5C 54.762,99.9778 54.4287,101.311 53.5,102.5C 51.6036,103.275 49.937,104.275 48.5,105.5 Z"/></g>
<g><path style="opacity:1" fill="#4e6da2" d="M 122.5,92.5 C 123.167,92.5 123.833,92.5 124.5,92.5C 125.161,97.3563 124.161,101.69 121.5,105.5C 122.159,102.545 122.492,99.5448 122.5,96.5C 119.833,96.5 117.167,96.5 114.5,96.5C 114.5,97.5 114.5,98.5 114.5,99.5C 111.522,100.915 108.522,101.582 105.5,101.5C 104.749,100.624 104.249,99.624 104,98.5C 101.281,99.4438 98.4475,99.7771 95.5,99.5C 97.3691,98.8354 99.3691,98.1687 101.5,97.5C 99.242,96.63 96.9087,96.63 94.5,97.5C 92.9704,97.3601 91.9704,96.6935 91.5,95.5C 95.2155,95.6797 98.8822,95.3464 102.5,94.5C 104.833,94.1667 105.167,93.1667 103.5,91.5C 105.637,90.9202 107.47,89.9202 109,88.5C 109.689,89.3567 110.522,90.0233 111.5,90.5C 113.62,89.1285 114.62,89.7952 114.5,92.5C 117.167,92.5 119.833,92.5 122.5,92.5 Z"/></g>
<g><path style="opacity:1" fill="#e6e5eb" d="M 108.5,91.5 C 112.757,92.3579 114.091,94.6912 112.5,98.5C 109.36,99.79 106.694,98.9566 104.5,96C 105.733,94.3333 107.067,92.8333 108.5,91.5 Z"/></g>
<g><path style="opacity:1" fill="#3e5693" d="M 73.5,89.5 C 76.876,91.4307 77.876,94.2641 76.5,98C 77.0065,101.54 78.3398,104.707 80.5,107.5C 76.5,108.833 72.5,108.833 68.5,107.5C 71.5627,103.587 72.5627,99.2533 71.5,94.5C 72.1869,92.8228 72.8535,91.1561 73.5,89.5 Z"/></g>
<g><path style="opacity:1" fill="#e5e3e7" d="M 73.5,92.5 C 74.5862,92.62 75.2528,93.2867 75.5,94.5C 75.1667,95.1667 74.8333,95.8333 74.5,96.5C 73.5713,95.3112 73.238,93.9778 73.5,92.5 Z"/></g>
<g><path style="opacity:1" fill="#e4e2e9" d="M 73.5,99.5 C 75.0341,101.746 76.7007,104.08 78.5,106.5C 75.8333,107.833 73.1667,107.833 70.5,106.5C 72.8541,104.754 73.8541,102.421 73.5,99.5 Z"/></g>
<g><path style="opacity:1" fill="#a7adc7" d="M 58.5,99.5 C 57.8688,101.448 56.8688,103.281 55.5,105C 51.6578,105.721 48.3245,107.387 45.5,110C 43.1341,110.44 40.8008,110.94 38.5,111.5C 37.5084,111.672 36.8417,111.338 36.5,110.5C 39.9523,107.781 43.9523,106.115 48.5,105.5C 50.5643,105.313 52.5643,104.813 54.5,104C 55.3081,101.912 56.3081,99.9124 57.5,98C 53.9716,97.911 50.6382,97.2444 47.5,96C 51.6327,96.0936 55.2994,95.2603 58.5,93.5C 59.2485,92.469 59.9152,91.3024 60.5,90C 61.3317,89.3123 61.9984,89.479 62.5,90.5C 60.3418,93.1485 59.0084,96.1485 58.5,99.5 Z"/></g>
<g><path style="opacity:1" fill="#94a1c0" d="M 80.5,81.5 C 82.1667,83.8333 84.1667,85.8333 86.5,87.5C 87.5462,89.7359 88.8795,91.7359 90.5,93.5C 91.3382,93.8417 91.6716,94.5084 91.5,95.5C 91.9704,96.6935 92.9704,97.3601 94.5,97.5C 96.9087,96.63 99.242,96.63 101.5,97.5C 99.3691,98.1687 97.3691,98.8354 95.5,99.5C 94.6749,101.125 95.0082,102.792 96.5,104.5C 102.78,105.897 108.78,107.897 114.5,110.5C 115.29,111.401 116.29,112.068 117.5,112.5C 117.672,113.492 117.338,114.158 116.5,114.5C 116.5,113.833 116.167,113.5 115.5,113.5C 108.711,111.349 101.711,109.516 94.5,108C 93.2986,107.097 92.4652,105.931 92,104.5C 91.6874,98.8796 89.5208,94.2129 85.5,90.5C 83.7801,87.2689 81.4468,84.4356 78.5,82C 79.0944,81.5357 79.7611,81.369 80.5,81.5 Z"/></g>
<g><path style="opacity:1" fill="#254581" d="M 121.5,105.5 C 121.002,108.326 119.669,110.66 117.5,112.5C 116.29,112.068 115.29,111.401 114.5,110.5C 117.669,109.998 120.002,108.331 121.5,105.5 Z"/></g>
<g><path style="opacity:0.506" fill="#c79a85" d="M 3.5,107.5 C 4.49722,107.47 5.16389,107.97 5.5,109C 6.36058,112.137 7.02725,115.303 7.5,118.5C 6.35089,118.209 5.68423,117.376 5.5,116C 4.90732,113.13 4.24065,110.297 3.5,107.5 Z"/></g>
<g><path style="opacity:1" fill="#5e6696" d="M 29.5,106.5 C 30.8118,107.145 31.8118,108.145 32.5,109.5C 33.6888,110.429 35.0222,110.762 36.5,110.5C 36.8417,111.338 37.5084,111.672 38.5,111.5C 36.882,112.451 35.5487,113.784 34.5,115.5C 35.3928,118.084 35.7261,120.751 35.5,123.5C 34.0749,120.097 33.2415,116.43 33,112.5C 31.0527,110.937 29.886,108.937 29.5,106.5 Z"/></g>
<g><path style="opacity:0.027" fill="#ca9f89" d="M 146.5,103.5 C 145.759,106.297 145.093,109.13 144.5,112C 144.316,113.376 143.649,114.209 142.5,114.5C 142.973,111.303 143.639,108.137 144.5,105C 144.836,103.97 145.503,103.47 146.5,103.5 Z"/></g>
<g><path style="opacity:1" fill="#499ece" d="M 88.5,120.5 C 85.5,121.167 82.5,121.833 79.5,122.5C 78.8333,122.5 78.1667,122.5 77.5,122.5C 75.5828,120.149 73.9161,120.149 72.5,122.5C 71.5084,122.672 70.8417,122.338 70.5,121.5C 70.7672,119.602 71.4339,117.935 72.5,116.5C 77.5971,118.637 82.9304,119.97 88.5,120.5 Z"/></g>
<g><path style="opacity:1" fill="#2a3377" d="M 54.5,119.5 C 54.5,119.833 54.5,120.167 54.5,120.5C 54.5,121.833 55.1667,122.5 56.5,122.5C 56.1583,123.338 55.4916,123.672 54.5,123.5C 52.283,122.631 49.9496,122.298 47.5,122.5C 49.8272,121.634 52.1605,120.634 54.5,119.5 Z"/></g>
<g><path style="opacity:1" fill="#cac8d5" d="M 54.5,120.5 C 58.0315,121.757 61.6982,122.591 65.5,123C 62.408,123.736 59.408,123.569 56.5,122.5C 55.1667,122.5 54.5,121.833 54.5,120.5 Z"/></g>
<g><path style="opacity:1" fill="#e1e0e8" d="M 47.5,122.5 C 49.9496,122.298 52.283,122.631 54.5,123.5C 56.4758,125.011 58.8091,125.844 61.5,126C 60.944,126.383 60.6107,126.883 60.5,127.5C 59.1667,127.5 57.8333,127.5 56.5,127.5C 55.209,127.263 54.209,127.596 53.5,128.5C 48.8394,129.168 46.8394,127.168 47.5,122.5 Z"/></g>
<g><path style="opacity:1" fill="#8788ac" d="M 93.5,123.5 C 93.3893,124.117 93.056,124.617 92.5,125C 90.1667,125.333 87.8333,125.667 85.5,126C 86.4158,126.278 87.0825,126.778 87.5,127.5C 86.8333,127.5 86.5,127.833 86.5,128.5C 85.209,128.737 84.209,128.404 83.5,127.5C 84.7383,127.19 84.7383,126.69 83.5,126C 81.1955,125.105 78.8622,124.271 76.5,123.5C 76.6236,122.893 76.9569,122.56 77.5,122.5C 78.1667,122.5 78.8333,122.5 79.5,122.5C 83.7071,122.663 87.8737,122.329 92,121.5C 94.3595,121.324 94.8595,121.991 93.5,123.5 Z"/></g>
<g><path style="opacity:1" fill="#455c8e" d="M 35.5,123.5 C 37.7409,124.3 38.7409,125.966 38.5,128.5C 36.7497,127.341 35.7497,125.674 35.5,123.5 Z"/></g>
<g><path style="opacity:1" fill="#686f9d" d="M 54.5,120.5 C 54.5,120.167 54.5,119.833 54.5,119.5C 59.6782,121.085 65.0116,121.752 70.5,121.5C 70.8417,122.338 71.5084,122.672 72.5,122.5C 71.6521,124.093 70.3187,125.26 68.5,126C 72.0252,126.179 75.3586,126.679 78.5,127.5C 72.7969,127.375 67.1302,127.708 61.5,128.5C 61.5,127.833 61.1667,127.5 60.5,127.5C 60.6107,126.883 60.944,126.383 61.5,126C 58.8091,125.844 56.4758,125.011 54.5,123.5C 55.4916,123.672 56.1583,123.338 56.5,122.5C 59.408,123.569 62.408,123.736 65.5,123C 61.6982,122.591 58.0315,121.757 54.5,120.5 Z"/></g>
<g><path style="opacity:1" fill="#e9e8ee" d="M 87.5,127.5 C 87.0825,126.778 86.4158,126.278 85.5,126C 87.8333,125.667 90.1667,125.333 92.5,125C 93.056,124.617 93.3893,124.117 93.5,123.5C 95.861,123.326 98.1944,122.993 100.5,122.5C 100.5,124.5 100.5,126.5 100.5,128.5C 96.1311,128.533 91.7978,128.2 87.5,127.5 Z"/></g>
<g><path style="opacity:0.282" fill="#c99c85" d="M 142.5,115.5 C 141.692,121.49 139.692,126.823 136.5,131.5C 137.946,125.814 139.946,120.481 142.5,115.5 Z"/></g>
<g><path style="opacity:1" fill="#1c216d" d="M 77.5,122.5 C 76.9569,122.56 76.6236,122.893 76.5,123.5C 78.8622,124.271 81.1955,125.105 83.5,126C 84.7383,126.69 84.7383,127.19 83.5,127.5C 81.8333,127.5 80.1667,127.5 78.5,127.5C 75.3586,126.679 72.0252,126.179 68.5,126C 70.3187,125.26 71.6521,124.093 72.5,122.5C 73.9161,120.149 75.5828,120.149 77.5,122.5 Z"/></g>
<g><path style="opacity:1" fill="#f7f6f7" d="M 78.5,127.5 C 80.1667,127.5 81.8333,127.5 83.5,127.5C 84.209,128.404 85.209,128.737 86.5,128.5C 78.9032,130.467 70.9032,131.134 62.5,130.5C 61.6618,130.158 61.3284,129.492 61.5,128.5C 67.1302,127.708 72.7969,127.375 78.5,127.5 Z"/></g>
<g><path style="opacity:1" fill="#2d3277" d="M 47.5,122.5 C 46.8394,127.168 48.8394,129.168 53.5,128.5C 52.2676,129.762 50.2676,129.762 47.5,128.5C 46.2463,126.357 46.2463,124.357 47.5,122.5 Z"/></g>
<g><path style="opacity:1" fill="#225287" d="M 115.5,113.5 C 116.167,113.5 116.5,113.833 116.5,114.5C 116.811,126.156 111.811,134.489 101.5,139.5C 110.361,133.112 115.028,124.446 115.5,113.5 Z"/></g>
<g><path style="opacity:1" fill="#4a5c94" d="M 79.5,132.5 C 73.8333,131.833 68.1667,131.167 62.5,130.5C 70.9032,131.134 78.9032,130.467 86.5,128.5C 86.5,127.833 86.8333,127.5 87.5,127.5C 91.7978,128.2 96.1311,128.533 100.5,128.5C 100.5,126.5 100.5,124.5 100.5,122.5C 98.1944,122.993 95.861,123.326 93.5,123.5C 94.8595,121.991 94.3595,121.324 92,121.5C 87.8737,122.329 83.7071,122.663 79.5,122.5C 82.5,121.833 85.5,121.167 88.5,120.5C 90.126,120.062 91.7927,119.728 93.5,119.5C 96.1158,120.513 98.7825,121.347 101.5,122C 102.591,124.064 102.758,126.231 102,128.5C 101.261,129.574 100.261,130.241 99,130.5C 95.5592,129.618 92.0592,129.284 88.5,129.5C 88.5,130.5 88.5,131.5 88.5,132.5C 85.5,132.5 82.5,132.5 79.5,132.5 Z"/></g>
<g><path style="opacity:0.008" fill="#cea895" d="M 7.5,119.5 C 10.2371,124.011 12.2371,129.011 13.5,134.5C 10.7468,129.929 8.74677,124.929 7.5,119.5 Z"/></g>
<g><path style="opacity:1" fill="#313b7e" d="M 56.5,127.5 C 57.8333,127.5 59.1667,127.5 60.5,127.5C 61.1667,127.5 61.5,127.833 61.5,128.5C 61.3284,129.492 61.6618,130.158 62.5,130.5C 68.1667,131.167 73.8333,131.833 79.5,132.5C 78.6993,134.042 78.366,135.708 78.5,137.5C 77.8485,138.091 77.1818,138.757 76.5,139.5C 75.8933,139.376 75.56,139.043 75.5,138.5C 76.4345,137.432 76.7678,136.099 76.5,134.5C 72.56,133.766 71.2266,135.099 72.5,138.5C 72.1667,139.167 71.8333,139.833 71.5,140.5C 70.8333,140.5 70.5,140.833 70.5,141.5C 69.8485,142.091 69.1818,142.757 68.5,143.5C 67.8933,143.376 67.56,143.043 67.5,142.5C 73.1457,134.141 70.8124,130.641 60.5,132C 59.6634,130.989 59.33,129.822 59.5,128.5C 58.209,128.737 57.209,128.404 56.5,127.5 Z"/></g>
<g><path style="opacity:1" fill="#313b73" d="M 40.5,131.5 C 43.1667,133.5 45.5,135.833 47.5,138.5C 44.1667,137.167 41.8333,134.833 40.5,131.5 Z"/></g>
<g><path style="opacity:1" fill="#e2e1e9" d="M 75.5,138.5 C 74.5,138.5 73.5,138.5 72.5,138.5C 71.2266,135.099 72.56,133.766 76.5,134.5C 76.7678,136.099 76.4345,137.432 75.5,138.5 Z"/></g>
<g><path style="opacity:0.035" fill="#c89a83" d="M 136.5,131.5 C 135.873,135.42 134.207,138.753 131.5,141.5C 132.421,137.701 134.088,134.368 136.5,131.5 Z"/></g>
<g><path style="opacity:0.192" fill="#ca9f8a" d="M 13.5,134.5 C 15.8913,136.935 17.558,139.935 18.5,143.5C 16.0764,140.992 14.4097,137.992 13.5,134.5 Z"/></g>
<g><path style="opacity:1" fill="#55689f" d="M 78.5,137.5 C 78.9617,139.757 79.9617,141.757 81.5,143.5C 76.5,144.833 71.5,144.833 66.5,143.5C 66.6236,142.893 66.9569,142.56 67.5,142.5C 67.56,143.043 67.8933,143.376 68.5,143.5C 69.1818,142.757 69.8485,142.091 70.5,141.5C 72.6934,142.797 75.0268,142.797 77.5,141.5C 75.604,140.534 73.604,140.201 71.5,140.5C 71.8333,139.833 72.1667,139.167 72.5,138.5C 73.5,138.5 74.5,138.5 75.5,138.5C 75.56,139.043 75.8933,139.376 76.5,139.5C 77.1818,138.757 77.8485,138.091 78.5,137.5 Z"/></g>
<g><path style="opacity:1" fill="#ecebef" d="M 71.5,140.5 C 73.604,140.201 75.604,140.534 77.5,141.5C 75.0268,142.797 72.6934,142.797 70.5,141.5C 70.5,140.833 70.8333,140.5 71.5,140.5 Z"/></g>
<g><path style="opacity:1" fill="#241e1b" d="M 81.5,16.5 C 80.8333,16.5 80.1667,16.5 79.5,16.5C 78.3951,15.3995 77.0618,14.7329 75.5,14.5C 74.8333,13.1667 74.1667,13.1667 73.5,14.5C 66.6303,19.1026 59.2969,22.936 51.5,26C 46.5943,27.4765 41.5943,28.4765 36.5,29C 31.1602,43.0212 22.6602,54.8546 11,64.5C 9.87132,91.5236 15.8713,116.857 29,140.5C 43.6273,151.553 58.4606,162.22 73.5,172.5C 73.5,172.833 73.5,173.167 73.5,173.5C 72.8333,173.5 72.5,173.833 72.5,174.5C 58.0459,164.553 43.7126,154.386 29.5,144C 25.957,139.084 22.7903,133.917 20,128.5C 12.0094,107.544 8.34274,85.8774 9,63.5C 21.0003,53.8335 29.8336,41.8335 35.5,27.5C 42.0744,27.0465 48.4077,25.5465 54.5,23C 61.0611,18.929 67.7277,15.0957 74.5,11.5C 77.1286,12.8018 79.462,14.4684 81.5,16.5 Z"/></g>
<g><path style="opacity:1" fill="#171c16" d="M 79.5,16.5 C 80.1667,16.5 80.8333,16.5 81.5,16.5C 86.478,18.989 91.478,21.489 96.5,24C 102.415,25.7024 108.415,27.0357 114.5,28C 119.873,42.3791 128.707,54.2125 141,63.5C 141.995,90.8688 135.995,116.536 123,140.5C 107.252,152.748 91.0857,164.414 74.5,175.5C 73.8165,175.137 73.1499,174.804 72.5,174.5C 72.5,173.833 72.8333,173.5 73.5,173.5C 74.4916,173.672 75.1583,173.338 75.5,172.5C 91.0797,162.121 106.246,151.121 121,139.5C 134.156,116.335 140.156,91.3347 139,64.5C 127.209,55.4105 118.709,43.9105 113.5,30C 100.755,28.7035 89.4214,24.2035 79.5,16.5 Z"/></g>
<g><path style="opacity:1" fill="#2f316e" d="M 51.5,140.5 C 55.6061,143.429 59.6061,146.596 63.5,150C 70.653,152.725 77.9863,153.225 85.5,151.5C 82.8082,154.142 79.4749,155.142 75.5,154.5C 74.8333,154.5 74.1667,154.5 73.5,154.5C 63.8961,153.367 56.5628,148.7 51.5,140.5 Z"/></g>
<g><path style="opacity:1" fill="#102967" d="M 99.5,140.5 C 96.3238,146.085 91.6572,149.752 85.5,151.5C 90.5991,148.296 95.2657,144.629 99.5,140.5 Z"/></g>
<g><path style="opacity:1" fill="#7ce3c3" d="M 73.5,154.5 C 74.1667,154.5 74.8333,154.5 75.5,154.5C 75.5,160.5 75.5,166.5 75.5,172.5C 75.1583,173.338 74.4916,173.672 73.5,173.5C 73.5,173.167 73.5,172.833 73.5,172.5C 73.5,166.5 73.5,160.5 73.5,154.5 Z"/></g>
<g><path style="opacity:0.376" fill="#848484" d="M 134.5,189.5 C 95.5,189.5 56.5,189.5 17.5,189.5C 17.5,196.5 17.5,203.5 17.5,210.5C 56.3298,211.499 95.3298,211.832 134.5,211.5C 134.5,211.833 134.5,212.167 134.5,212.5C 95.1667,212.5 55.8333,212.5 16.5,212.5C 16.5,204.5 16.5,196.5 16.5,188.5C 56.0035,188.168 95.3369,188.501 134.5,189.5 Z"/></g>
<g><path style="opacity:1" fill="#111111" d="M 134.5,189.5 C 134.5,196.5 134.5,203.5 134.5,210.5C 132.446,210.635 130.779,209.968 129.5,208.5C 128.85,208.196 128.183,207.863 127.5,207.5C 126.205,203.62 126.205,199.786 127.5,196C 114.5,195.667 101.5,195.333 88.5,195C 87.3931,191.195 85.0597,190.028 81.5,191.5C 88.4408,194.06 88.1075,195.56 80.5,196C 82.5,196.333 84.5,196.667 86.5,197C 84.324,197.163 82.4907,197.996 81,199.5C 80.4926,200.996 80.9926,202.163 82.5,203C 84.7271,203.121 86.5604,203.954 88,205.5C 88.2178,202.574 88.7178,199.74 89.5,197C 92.1667,196.333 94.8333,196.333 97.5,197C 94.2617,197.902 91.9284,199.902 90.5,203C 91.6953,207.396 94.362,208.896 98.5,207.5C 99.1667,208.167 99.8333,208.833 100.5,209.5C 100.949,206.956 100.949,204.29 100.5,201.5C 98.4012,202.231 96.4012,202.231 94.5,201.5C 95.6685,199.783 97.3352,199.116 99.5,199.5C 99.5,198.5 99.5,197.5 99.5,196.5C 102.898,196.18 106.232,196.513 109.5,197.5C 107.657,197.755 105.657,197.922 103.5,198C 101.906,203.256 103.739,204.756 109,202.5C 111.259,203.38 113.425,204.38 115.5,205.5C 116.166,202.972 116.832,200.306 117.5,197.5C 118.386,198.325 118.719,199.325 118.5,200.5C 117.263,201.743 117.596,202.743 119.5,203.5C 120.736,202.754 122.07,202.421 123.5,202.5C 123.115,205.89 124.448,208.223 127.5,209.5C 91.0038,210.498 54.3371,210.832 17.5,210.5C 17.5,203.5 17.5,196.5 17.5,189.5C 56.5,189.5 95.5,189.5 134.5,189.5 Z"/></g>
<g><path style="opacity:1" fill="#4f4e4e" d="M 61.5,193.5 C 62.0431,193.56 62.3764,193.893 62.5,194.5C 51.5202,195.499 40.5202,195.832 29.5,195.5C 40.1667,194.833 50.8333,194.167 61.5,193.5 Z"/></g>
<g><path style="opacity:1" fill="#d6d6d6" d="M 72.5,197.5 C 70.0521,196.527 67.3854,196.194 64.5,196.5C 64.5,199.5 64.5,202.5 64.5,205.5C 64.44,206.043 64.1067,206.376 63.5,206.5C 62.5344,204.604 62.2011,202.604 62.5,200.5C 58.9206,200.766 58.5873,202.099 61.5,204.5C 61.1667,204.833 60.8333,205.167 60.5,205.5C 58.2401,203.117 56.2401,200.451 54.5,197.5C 53.8333,200.167 53.1667,202.833 52.5,205.5C 51.5713,204.311 51.238,202.978 51.5,201.5C 49.5,202.167 47.5,202.833 45.5,203.5C 45.366,201.708 45.6993,200.042 46.5,198.5C 45.8166,196.824 44.4832,196.157 42.5,196.5C 42.81,199.713 42.4767,202.713 41.5,205.5C 41.6495,204.448 41.4828,203.448 41,202.5C 37.6539,203.089 37.6539,202.422 41,200.5C 41.49,199.207 41.6567,197.873 41.5,196.5C 40.1667,196.5 38.8333,196.5 37.5,196.5C 37.7678,198.099 37.4345,199.432 36.5,200.5C 36.5,199.167 36.5,197.833 36.5,196.5C 35.5,196.5 34.5,196.5 33.5,196.5C 33.8174,199.572 33.4841,202.572 32.5,205.5C 31.8333,204.5 31.1667,203.5 30.5,202.5C 26.9041,206.692 23.9041,206.192 21.5,201C 23.1068,200.885 24.6068,201.385 26,202.5C 26.5,202.167 27,201.833 27.5,201.5C 26.5,200.833 25.5,200.167 24.5,199.5C 25.0253,198.808 25.6919,198.308 26.5,198C 22.6959,196.506 23.0293,195.672 27.5,195.5C 28.3007,197.042 28.634,198.708 28.5,200.5C 29.5,200.5 30.5,200.5 31.5,200.5C 31.6347,198.446 30.968,196.779 29.5,195.5C 40.5202,195.832 51.5202,195.499 62.5,194.5C 62.3764,193.893 62.0431,193.56 61.5,193.5C 60.2825,192.839 58.9492,192.172 57.5,191.5C 60.7981,190.087 63.1314,191.087 64.5,194.5C 68.4592,195.327 72.4592,195.827 76.5,196C 74.9467,199.217 73.9467,202.717 73.5,206.5C 72.5344,204.604 72.2011,202.604 72.5,200.5C 70.857,200.48 69.5237,201.147 68.5,202.5C 67.5713,201.311 67.238,199.978 67.5,198.5C 69.4147,198.784 71.0813,198.451 72.5,197.5 Z"/></g>
<g><path style="opacity:1" fill="#d8d7d7" d="M 129.5,208.5 C 129.158,209.338 128.492,209.672 127.5,209.5C 124.448,208.223 123.115,205.89 123.5,202.5C 122.07,202.421 120.736,202.754 119.5,203.5C 117.596,202.743 117.263,201.743 118.5,200.5C 119.434,199.432 119.768,198.099 119.5,196.5C 118.167,196.5 116.833,196.5 115.5,196.5C 115.5,199.5 115.5,202.5 115.5,205.5C 113.425,204.38 111.259,203.38 109,202.5C 103.739,204.756 101.906,203.256 103.5,198C 105.657,197.922 107.657,197.755 109.5,197.5C 106.232,196.513 102.898,196.18 99.5,196.5C 99.5,197.5 99.5,198.5 99.5,199.5C 97.3352,199.116 95.6685,199.783 94.5,201.5C 96.4012,202.231 98.4012,202.231 100.5,201.5C 100.949,204.29 100.949,206.956 100.5,209.5C 99.8333,208.833 99.1667,208.167 98.5,207.5C 94.362,208.896 91.6953,207.396 90.5,203C 91.9284,199.902 94.2617,197.902 97.5,197C 94.8333,196.333 92.1667,196.333 89.5,197C 88.7178,199.74 88.2178,202.574 88,205.5C 86.5604,203.954 84.7271,203.121 82.5,203C 80.9926,202.163 80.4926,200.996 81,199.5C 82.4907,197.996 84.324,197.163 86.5,197C 84.5,196.667 82.5,196.333 80.5,196C 88.1075,195.56 88.4408,194.06 81.5,191.5C 85.0597,190.028 87.3931,191.195 88.5,195C 101.5,195.333 114.5,195.667 127.5,196C 126.205,199.786 126.205,203.62 127.5,207.5C 128.183,207.863 128.85,208.196 129.5,208.5 Z"/></g>
<g><path style="opacity:1" fill="#2d2c2c" d="M 48.5,196.5 C 49.5,196.5 50.5,196.5 51.5,196.5C 51.5,197.5 51.5,198.5 51.5,199.5C 50.5,199.5 49.5,199.5 48.5,199.5C 48.5,198.5 48.5,197.5 48.5,196.5 Z"/></g>
<g><path style="opacity:1" fill="#595959" d="M 120.5,196.5 C 122.346,196.222 123.68,196.889 124.5,198.5C 123.68,200.111 122.346,200.778 120.5,200.5C 120.5,199.167 120.5,197.833 120.5,196.5 Z"/></g>
<g><path style="opacity:1" fill="#595959" d="M 27.5,195.5 C 28.1667,195.5 28.8333,195.5 29.5,195.5C 30.968,196.779 31.6347,198.446 31.5,200.5C 30.5,200.5 29.5,200.5 28.5,200.5C 28.634,198.708 28.3007,197.042 27.5,195.5 Z"/></g>
<g><path style="opacity:1" fill="#666666" d="M 111.5,196.5 C 112.5,196.5 113.5,196.5 114.5,196.5C 115.158,200.677 113.492,202.177 109.5,201C 111.037,199.89 111.703,198.39 111.5,196.5 Z"/></g>
<g><path style="opacity:1" fill="#1b1b1b" d="M 83.5,199.5 C 84.675,199.281 85.675,199.614 86.5,200.5C 84.9483,201.798 83.9483,201.465 83.5,199.5 Z"/></g>
<g><path style="opacity:1" fill="#2d2e2e" d="M 104.5,199.5 C 105.675,199.281 106.675,199.614 107.5,200.5C 106.277,201.614 104.944,201.781 103.5,201C 104.056,200.617 104.389,200.117 104.5,199.5 Z"/></g>
<g><path style="opacity:1" fill="#575656" d="M 118.5,200.5 C 118.719,199.325 118.386,198.325 117.5,197.5C 116.832,200.306 116.166,202.972 115.5,205.5C 115.5,202.5 115.5,199.5 115.5,196.5C 116.833,196.5 118.167,196.5 119.5,196.5C 119.768,198.099 119.434,199.432 118.5,200.5 Z"/></g>
<g><path style="opacity:1" fill="#5d5c5c" d="M 72.5,197.5 C 70.1667,197.5 67.8333,197.5 65.5,197.5C 65.8064,200.385 65.4731,203.052 64.5,205.5C 64.5,202.5 64.5,199.5 64.5,196.5C 67.3854,196.194 70.0521,196.527 72.5,197.5 Z"/></g>
<g><path style="opacity:1" fill="#8c8b8b" d="M 41.5,205.5 C 39.5196,205.146 37.5196,204.813 35.5,204.5C 36.2458,203.264 36.5792,201.93 36.5,200.5C 37.4345,199.432 37.7678,198.099 37.5,196.5C 38.8333,196.5 40.1667,196.5 41.5,196.5C 41.6567,197.873 41.49,199.207 41,200.5C 37.6539,202.422 37.6539,203.089 41,202.5C 41.4828,203.448 41.6495,204.448 41.5,205.5 Z"/></g>
<g><path style="opacity:1" fill="#777676" d="M 46.5,198.5 C 45.8501,198.196 45.1835,197.863 44.5,197.5C 43.8333,200.5 43.1667,203.5 42.5,206.5C 41.8933,206.376 41.56,206.043 41.5,205.5C 42.4767,202.713 42.81,199.713 42.5,196.5C 44.4832,196.157 45.8166,196.824 46.5,198.5 Z"/></g>
<g><path style="opacity:0.795" fill="#303030" d="M 129.5,208.5 C 130.779,209.968 132.446,210.635 134.5,210.5C 134.5,210.833 134.5,211.167 134.5,211.5C 95.3298,211.832 56.3298,211.499 17.5,210.5C 54.3371,210.832 91.0038,210.498 127.5,209.5C 128.492,209.672 129.158,209.338 129.5,208.5 Z"/></g>
</svg>
